<svg
  version="1.2"
  xmlns="http://www.w3.org/2000/svg"
  viewBox="0 0 180 114"
  width="180"
  height="114"
>
	<path
    fill="#EEE"
    stroke="#CCC"
    stroke-width="1"
    d="m153.1 113.4h-138c-8.2 0-15-6.8-15-15 0-4 1.6-7.8 4.4-10.6-2.9-4.2-4.5-9.2-4.5-14.3 0-13 9.8-23.7 22.4-25.1 1-8.4 7.5-15.1 15.8-16.5 0.9-17.5 15.4-31.5 33.2-31.5 11.6 0 22.2 5.9 28.2 15.7 3.9-2.1 8.3-3.2 12.8-3.2 13 0 24 9 26.8 21.3q1.7-0.2 3.4-0.2c15.2 0 27.5 12.3 27.5 27.5q0 2.4-0.4 4.7c6.3 5 10 12.6 10 20.7 0 14.6-11.9 26.5-26.6 26.5z"
  />
</svg>
