<svg
  xmlns="http://www.w3.org/2000/svg"
  width="256px"
  height="256px"
  viewBox="0 0 161 80"
>
  <path
    fill="#EEE"
    stroke="#CCC"
    stroke-width="1"
    d="M 59.00,15.00
            C 66.39,-3.70 91.97,-5.31 101.00,13.00
              113.10,8.48 129.57,10.97 135.19,24.17
              137.39,29.33 137.00,35.49 137.00,41.00
              141.92,41.00 147.28,40.67 151.71,43.24
              161.65,48.99 164.24,63.97 156.32,72.46
              151.36,77.78 142.95,79.99 136.00,80.00
              136.00,80.00 23.00,80.00 23.00,80.00
              8.52,79.98 -0.27,71.69 0.02,57.00
              0.08,53.71 0.59,49.24 2.06,46.29
              4.73,40.92 11.17,35.75 17.00,34.62
              19.82,34.07 25.69,34.22 27.57,32.98
              29.87,31.47 30.63,27.15 33.83,23.31
              40.71,15.06 48.67,12.49 59.00,15.00 Z"
  />
</svg>
