<svg
  version="1.2"
  xmlns="http://www.w3.org/2000/svg"
  viewBox="0 0 195 102"
  width="256px"
  height="256px"
>
	<path
    fill="#EEE"
    stroke="#CCC"
    stroke-width="1"
    d="m168.2 101.7h-140.7c-10 0-18.5-4.8-23.2-13.1-5.3-9.1-5.1-21.1 0.3-30.5 3.5-5.9 11.8-15.5 30.1-16.5-0.4-4.3 0.3-8.7 2-12.8 4.4-10.2 15.2-16.7 26.1-15.9 4.7 0.4 9 1.9 12.8 4.4 8.1-12.9 23.5-19.5 38.6-16.1 11.4 2.6 21 10.7 25.5 21.5 3.6-0.8 7.4-0.7 11 0.1 12.9 2.9 21.6 14.9 20.6 27.8 7.9 0.3 14.6 4.1 18.9 10.5 5.4 8.2 5.9 19.4 1.4 27.8-4.5 8.2-12.8 12.8-23.4 12.8z"
  />
</svg>
