<svg
  version="1.2"
  xmlns="http://www.w3.org/2000/svg"
  viewBox="0 0 235 117"
  width="235"
  height="117"
>
  <path
    fill="#EEE"
    stroke="#CCC"
    stroke-width="1"
    d="m197.8 117h-161c-14.4 0-25.9-6.3-31.7-17.2-5.8-10.9-4.9-24.8 2.3-35.4 7.7-11.3 21.3-17.1 37.7-16.1q0.5-2.8 1.4-5.4c6-16.5 23.8-25.3 40.4-20.4 3.3-8 9.3-14.3 17.2-18 8.2-3.9 17.5-4.3 26.1-1.2 8.1 2.9 14.7 8.7 18.7 16.3 8.9-4.4 19.1-5 28.5-1.6 16.6 6.1 26.4 23.2 23.6 40.2 12.2-0.5 22.6 4 28.8 12.8 6.1 8.6 6.9 19.7 2.2 28.9-5.6 10.8-18.1 17.1-34.2 17.1z"
  />
</svg>
