<svg
  version="1.2"
  xmlns="http://www.w3.org/2000/svg"
  viewBox="0 0 358 122"
  width="358"
  height="122"
>
	<path
    fill="#EEE"
    stroke="#CCC"
    stroke-width="1"
    d="m336.2 121.3h-314.3c-11.6 0-21-9.4-21-21 0-11 8.6-20 19.4-20.8 2.6-12.7 13.7-22 26.9-22q2.5 0 4.9 0.4c4.1-15.1 17.9-25.7 33.9-25.7 6.5 0 12.9 1.8 18.4 5.2 5.5-3.8 11.9-5.8 18.7-5.8 7.2-18.9 25.3-31.5 45.7-31.5 14.8 0 28.9 6.8 38.2 18.4q3.9-1 8-1c13.9 0 26.3 8.8 31.1 21.7 6.3 0.2 12.4 2.7 17 7 5.7-5.5 13.4-8.6 21.4-8.6 11.2 0 21.4 5.9 26.9 15.6 11.7 3.8 20.1 14.3 21.3 26.5q1.7-0.3 3.5-0.3c11.5 0 20.9 9.4 20.9 20.9 0 11.6-9.4 21-20.9 21z"
  />
</svg>
