<svg
  version="1.2"
  xmlns="http://www.w3.org/2000/svg"
  viewBox="0 0 191 115"
  width="256px"
  height="256px"
>
	<path
    fill="#EEE"
    stroke="#CCC"
    stroke-width="1"
    d="m156.1 114.7h-125.8c-15.8 0-28.2-17.5-29.3-33.1-1-14.1 9.8-29.6 22.5-33.3q-0.1-0.9-0.1-1.8c0-12.2 9.9-22.1 22.1-22.1 2.4 0 4.7 0.4 7 1.1 3.2-14.8 16.3-25.5 31.8-25.5 7.8 0 15.2 2.7 21.1 7.7 4-2.9 8.9-4.4 13.9-4.4 11.9 0 22 8.9 23.8 20.5q0.9-0.1 1.8-0.1c18.1 0 32.8 13.8 33.9 31.7 7.2 6.5 11.3 15.6 11.3 25.3 0 18.7-15.2 34-34 34z"
  />
</svg>
