<svg
  version="1.2"
  xmlns="http://www.w3.org/2000/svg"
  viewBox="0 0 204 114"
  width="256px"
  height="256px"
>
  <path
    fill="#EEE"
    stroke="#CCC"
    stroke-width="1"
    fill-rule="evenodd"
    d="m173.7 113.4h-135.5c-20.6 0-37.3-16.8-37.3-37.3 0-19.5 14.6-35.3 33.6-37.2 2.5-10.6 12-18.4 23.2-18.4 6.6 0 12.7 2.7 17.2 7.4 4.5-5.2 11-8.2 17.9-8.2q2.9 0 5.6 0.6c4-12 15.3-20.4 28.2-20.4 15.4 0 28.1 11.8 29.6 26.7 14.6 1.6 26.1 13.9 26.5 28.8 12.3 3.8 20.7 15.1 20.7 28.3 0 16.3-13.3 29.7-29.7 29.7z"
  />
</svg>
