<svg
  xmlns="http://www.w3.org/2000/svg"
  width="256"
  height="256"
  viewBox="0 0 768 838"
>
  <path
    fill="#FFF"
    stroke="black"
    stroke-width="0"
    d="M 768.00,636.00
            C 765.71,643.18 756.08,656.48 751.42,663.00
               737.38,682.64 722.07,700.93 705.00,718.00
               646.64,776.36 570.33,816.91 489.00,831.58
               489.00,831.58 443.00,837.09 443.00,837.09
               443.00,837.09 431.00,838.00 431.00,838.00
               431.00,838.00 397.00,838.00 397.00,838.00
               397.00,838.00 385.00,837.09 385.00,837.09
               342.29,834.15 300.81,824.92 261.00,809.00
               212.37,789.55 171.79,762.93 133.00,727.83
               109.00,706.12 83.33,674.41 65.95,647.00
               47.49,617.89 32.27,586.74 21.35,554.00
               -22.22,423.27 0.72,273.90 84.65,164.00
               109.28,131.76 137.21,103.80 170.00,79.85
               231.04,35.26 298.86,9.35 374.00,1.83
               374.00,1.83 399.00,0.00 399.00,0.00
               399.00,0.00 428.00,0.00 428.00,0.00
               428.00,0.00 440.00,0.91 440.00,0.91
               459.03,2.21 477.23,4.25 496.00,8.00
               505.25,9.85 525.87,14.55 534.00,18.00
               534.00,18.00 510.00,27.86 510.00,27.86
               495.11,34.39 480.81,41.82 467.00,50.42
               416.62,81.80 374.45,128.31 347.26,181.00
               299.91,272.76 299.06,386.59 345.27,479.00
               370.03,528.52 406.98,571.40 452.00,603.57
               480.29,623.79 512.73,639.26 546.00,649.28
               597.59,664.82 653.37,667.20 706.00,655.58
               706.00,655.58 750.00,642.66 750.00,642.66
               750.00,642.66 768.00,636.00 768.00,636.00 Z"
  />
</svg>
