<svg
  xmlns="http://www.w3.org/2000/svg"
  width="256"
  height="256"
  viewBox="0 0 353 407"
>
  <path
    id="Selection"
    fill="#acd9e8"
    stroke="black"
    stroke-width="0"
    d="M 175.10,0.84
        C 182.98,0.31 185.05,12.13 187.40,18.00
          189.69,23.72 197.87,42.08 197.81,47.00
          197.76,50.77 190.47,68.33 188.60,73.00
          188.60,73.00 181.59,89.89 181.59,89.89
          180.14,92.21 178.01,94.04 175.10,93.16
          170.53,91.76 166.05,76.63 164.20,72.00
          162.23,67.08 155.21,51.22 155.21,47.00
          155.21,43.25 163.27,23.91 165.20,19.00
          167.45,13.29 169.65,3.94 175.10,0.84 Z
        M 108.00,85.00
        C 108.87,81.15 113.06,64.63 114.85,62.23
          118.43,57.40 125.34,59.31 126.48,65.02
          127.29,69.11 120.66,86.63 120.85,91.00
          121.01,94.51 124.18,98.96 126.00,102.00
          126.31,98.37 127.44,91.09 129.72,88.28
          132.99,84.25 139.26,84.57 140.69,90.04
          142.39,96.55 136.20,109.35 135.88,116.00
          135.67,120.15 139.24,125.04 141.00,129.00
          147.43,124.40 159.70,111.25 166.00,105.00
          169.20,101.83 172.93,97.28 178.00,98.33
          181.86,99.13 186.23,104.23 189.00,107.00
          189.00,107.00 212.00,130.00 212.00,130.00
          213.95,123.33 217.32,121.10 216.93,116.84
          216.37,110.65 210.21,96.32 211.47,91.02
          212.80,85.42 219.30,84.86 222.44,88.31
          224.15,90.20 226.31,98.53 228.00,102.00
          229.27,97.98 232.23,94.34 231.77,90.00
          231.13,83.93 224.86,68.83 226.75,64.11
          228.58,59.56 234.97,58.72 238.15,63.15
          240.28,66.12 243.66,80.95 244.00,85.00
          244.00,85.00 256.00,81.88 256.00,81.88
          259.16,81.05 265.98,78.98 268.96,79.66
          274.20,80.85 275.25,87.10 271.69,90.49
          267.69,94.29 250.91,96.12 246.21,99.14
          243.24,101.03 241.48,104.93 240.00,107.82
          244.98,106.87 253.17,103.08 257.26,107.82
          258.57,109.11 258.95,111.10 258.53,112.99
          256.85,120.52 239.36,121.35 233.04,124.13
          228.03,126.34 225.61,132.47 223.00,137.00
          223.00,137.00 257.00,145.42 257.00,145.42
          261.07,146.56 266.76,147.59 268.39,152.04
          269.59,155.33 267.26,162.57 266.29,166.00
          266.29,166.00 258.00,197.00 258.00,197.00
          262.08,197.00 267.48,197.62 271.00,195.40
          276.14,192.15 285.95,179.32 291.00,177.61
          295.93,175.95 300.63,179.81 299.53,185.00
          298.67,189.06 292.94,194.06 290.00,197.00
          302.62,197.00 301.57,195.41 311.00,186.00
          314.40,182.60 319.55,176.26 324.96,177.47
          326.61,177.84 327.95,178.76 328.82,180.23
          332.15,185.83 325.50,191.48 322.00,195.00
          322.00,195.00 313.00,204.00 313.00,204.00
          316.94,206.82 327.90,216.81 329.59,221.00
          331.77,226.37 327.55,230.90 322.00,229.55
          315.45,227.96 307.19,215.51 301.00,211.60
          297.86,209.61 294.56,210.00 291.00,210.00
          294.05,213.06 299.24,217.61 300.01,222.00
          300.86,226.84 296.72,230.92 292.00,229.38
          287.05,227.77 277.11,214.83 272.00,211.60
          268.40,209.32 262.23,210.00 258.00,210.00
          258.00,210.00 268.68,251.00 268.68,251.00
          269.54,259.02 264.18,259.81 258.00,261.37
          258.00,261.37 223.00,271.00 223.00,271.00
          225.59,274.55 228.26,280.34 232.10,282.15
          236.23,284.09 253.33,286.92 256.43,289.72
          260.20,293.13 259.08,299.38 253.96,300.68
          249.94,301.70 242.91,299.28 239.00,298.00
          240.79,300.99 243.24,305.93 246.21,307.70
          250.61,310.33 266.83,312.49 270.77,315.70
          275.38,319.44 274.14,326.02 267.98,326.84
          263.17,327.49 250.65,323.14 245.00,322.00
          244.23,325.83 240.15,342.40 238.28,344.77
          234.93,349.02 228.56,348.23 226.83,342.96
          225.28,338.26 231.82,323.20 232.12,317.00
          232.32,313.05 229.67,309.48 228.00,306.00
          226.41,309.75 225.01,317.19 222.57,319.57
          218.76,323.29 212.99,321.68 212.15,315.98
          211.24,309.77 217.56,294.54 217.29,290.00
          217.11,287.04 213.43,281.21 212.00,278.00
          205.57,282.60 193.30,295.75 187.00,302.00
          183.80,305.17 180.07,309.72 175.00,308.67
          171.14,307.87 166.77,302.77 164.00,300.00
          158.06,294.06 147.22,282.46 141.00,278.00
          139.85,280.66 136.10,287.12 136.03,289.27
          135.90,293.27 142.68,311.15 141.65,315.98
          140.54,321.18 134.50,322.00 131.30,319.40
          128.77,317.35 126.82,308.75 125.00,305.00
          123.95,308.60 121.18,312.99 121.16,316.00
          121.16,316.00 126.52,338.00 126.52,338.00
          127.09,341.79 126.25,345.72 121.96,346.67
          119.60,347.19 117.16,346.44 115.51,344.69
          112.88,341.89 109.36,326.26 109.00,322.00
          109.00,322.00 87.00,327.66 87.00,327.66
          83.47,327.95 80.32,326.72 79.47,322.96
          78.12,316.96 83.39,314.86 88.00,313.63
          92.00,312.56 105.10,309.55 107.67,307.44
          110.23,305.34 111.68,301.94 113.00,298.89
          108.20,300.39 98.45,304.28 95.18,298.89
          94.35,297.38 94.12,295.59 94.47,294.02
          96.06,286.84 113.76,285.70 119.96,283.01
          125.05,280.80 127.53,274.67 130.00,270.00
          130.00,270.00 97.00,261.88 97.00,261.88
          92.85,260.79 86.79,260.28 84.86,255.89
          83.16,252.04 85.62,245.98 86.63,242.00
          86.63,242.00 95.00,210.00 95.00,210.00
          82.06,210.00 83.63,209.37 74.00,219.00
          70.24,222.75 63.89,230.96 58.04,229.67
          56.31,229.29 55.06,228.39 54.18,226.85
          50.57,220.58 59.12,213.89 63.00,210.00
          59.97,210.00 55.70,209.67 53.00,211.02
          48.22,213.41 37.65,226.71 33.00,228.97
          27.94,231.44 22.24,227.79 23.47,222.00
          24.76,215.94 35.72,209.09 36.80,205.00
          37.46,202.51 35.49,200.67 33.96,199.00
          30.94,195.70 25.27,191.08 23.74,187.00
          21.58,181.25 25.74,175.01 32.00,178.03
          36.61,180.25 47.23,193.59 52.00,195.98
          54.70,197.33 58.97,197.00 62.00,197.00
          59.08,194.07 54.47,190.07 53.43,186.00
          52.16,181.00 55.53,176.03 61.00,177.78
          66.19,179.44 75.98,192.23 81.00,195.40
          84.60,197.68 90.77,197.00 95.00,197.00
          95.00,197.00 86.85,166.00 86.85,166.00
          85.81,162.18 83.32,155.81 84.75,152.04
          86.54,147.35 91.78,146.75 96.00,145.58
          96.00,145.58 130.00,137.00 130.00,137.00
          127.73,133.06 125.20,126.89 120.90,125.02
          120.90,125.02 102.00,119.84 102.00,119.84
          98.68,118.88 95.33,117.77 94.47,113.96
          94.12,112.40 94.36,110.61 95.18,109.11
          98.57,103.53 109.04,107.56 114.00,109.11
          112.21,106.02 109.74,101.06 106.79,99.30
          102.92,96.99 84.81,94.24 81.65,91.28
          78.19,88.03 78.40,81.30 85.02,80.24
          88.99,79.60 102.91,83.98 108.00,85.00 Z
        M 4.06,99.74
        C 4.06,99.74 40.00,104.27 40.00,104.27
          45.15,105.03 50.83,105.31 54.70,109.14
          54.70,109.14 79.06,140.00 79.06,140.00
          83.34,146.21 82.62,151.49 74.00,150.83
          74.00,150.83 43.00,146.41 43.00,146.41
          39.45,145.84 31.88,145.13 29.17,143.26
          26.41,141.36 17.57,129.46 14.80,126.00
          14.80,126.00 1.65,109.00 1.65,109.00
          -0.65,104.79 -0.67,101.57 4.06,99.74 Z
        M 347.00,99.61
        C 351.06,99.97 353.61,101.26 352.67,106.00
          351.99,109.43 347.65,114.19 345.40,117.00
          345.40,117.00 328.00,138.98 328.00,138.98
          326.50,140.79 325.01,142.69 322.91,143.83
          320.82,144.96 314.68,145.64 312.00,146.08
          312.00,146.08 290.00,149.27 290.00,149.27
          287.03,149.70 278.47,151.17 276.02,150.84
          269.20,149.91 271.19,144.00 273.94,140.00
          273.94,140.00 298.44,109.14 298.44,109.14
          302.44,105.11 308.64,104.88 314.00,104.13
          314.00,104.13 347.00,99.61 347.00,99.61 Z
        M 170.00,121.00
        C 170.00,121.00 143.00,145.92 143.00,145.92
          143.00,145.92 108.00,157.00 108.00,157.00
          112.03,158.80 120.55,164.26 124.00,164.56
          126.67,164.79 133.19,162.80 136.00,162.00
          139.36,161.04 147.48,159.24 150.00,157.86
          153.38,156.02 158.14,150.86 161.00,148.00
          166.27,142.72 169.85,140.82 170.00,133.00
          170.00,133.00 170.00,121.00 170.00,121.00 Z
        M 184.00,121.00
        C 182.82,123.98 183.01,125.84 183.00,129.00
          182.98,140.49 183.56,139.56 192.00,148.00
          194.50,150.50 199.24,155.50 202.00,157.28
          204.71,159.02 223.34,164.07 227.00,164.49
          232.31,165.11 240.89,159.30 245.00,156.00
          245.00,156.00 210.00,145.92 210.00,145.92
          210.00,145.92 184.00,121.00 184.00,121.00 Z
        M 177.00,151.00
        C 177.00,151.00 157.00,169.00 157.00,169.00
          157.00,169.00 131.00,177.00 131.00,177.00
          131.00,177.00 136.81,202.00 136.81,202.00
          136.81,202.00 132.88,221.00 132.88,221.00
          132.88,221.00 132.11,229.44 132.11,229.44
          132.11,229.44 139.00,232.42 139.00,232.42
          139.00,232.42 155.00,236.97 155.00,236.97
          155.00,236.97 177.00,256.00 177.00,256.00
          181.81,251.19 192.46,239.46 198.00,236.97
          198.00,236.97 220.49,230.07 220.49,230.07
          222.22,228.25 221.14,225.17 220.49,223.00
          220.49,223.00 216.19,205.00 216.19,205.00
          215.84,200.70 218.91,190.63 220.15,186.00
          220.67,184.06 222.05,180.29 221.33,178.42
          220.48,176.16 217.08,175.45 215.00,174.88
          215.00,174.88 199.00,170.44 199.00,170.44
          192.51,167.89 182.32,156.32 177.00,151.00 Z
        M 102.00,168.00
        C 102.00,168.00 101.00,168.00 101.00,168.00
          101.00,168.00 102.00,169.00 102.00,169.00
          102.00,169.00 102.00,168.00 102.00,168.00 Z
        M 252.00,168.00
        C 252.00,168.00 251.00,168.00 251.00,168.00
          251.00,168.00 252.00,169.00 252.00,169.00
          252.00,169.00 252.00,168.00 252.00,168.00 Z
        M 101.00,239.00
        C 105.10,237.50 113.70,233.22 116.28,229.79
          118.00,227.50 119.70,220.13 120.58,217.00
          121.67,213.08 123.85,205.85 123.45,202.00
          123.45,202.00 119.88,188.00 119.88,188.00
          119.07,184.89 118.18,179.78 116.28,177.33
          113.61,173.90 106.16,170.21 102.00,169.00
          102.00,169.00 109.81,205.00 109.81,205.00
          109.81,205.00 101.00,239.00 101.00,239.00 Z
        M 251.00,169.00
        C 247.05,170.25 239.32,174.03 236.84,177.33
          234.92,179.88 233.68,185.78 232.87,189.00
          232.87,189.00 229.55,202.00 229.55,202.00
          229.10,206.24 231.41,212.79 232.58,217.00
          233.52,220.41 234.77,227.21 236.72,229.79
          239.03,232.84 248.27,237.62 252.00,239.00
          252.00,239.00 246.29,218.00 246.29,218.00
          246.29,218.00 243.19,202.00 243.19,202.00
          243.19,202.00 251.00,169.00 251.00,169.00 Z
        M 172.00,173.46
        C 185.26,171.64 197.93,177.86 204.00,190.00
          211.73,205.45 204.42,225.83 188.00,231.91
          183.76,233.48 179.52,234.14 175.00,233.96
          153.23,233.08 139.26,209.58 149.00,190.00
          153.90,180.13 161.63,175.71 172.00,173.46 Z
        M 175.00,186.34
        C 166.14,188.07 158.27,195.34 159.34,205.00
          160.32,213.83 168.98,221.60 178.00,220.66
          199.86,218.39 198.32,185.73 175.00,186.34 Z
        M 170.00,286.00
        C 170.00,286.00 170.00,276.00 170.00,276.00
          169.98,265.72 167.17,265.17 160.00,258.00
          149.10,247.10 148.53,248.30 134.00,244.63
          131.35,243.96 126.49,242.33 124.00,242.57
          119.84,242.98 111.95,248.04 109.00,251.00
          109.00,251.00 143.00,261.22 143.00,261.22
          143.00,261.22 170.00,286.00 170.00,286.00 Z
        M 244.00,250.00
        C 240.71,248.11 232.29,242.70 229.00,242.45
          226.77,242.29 221.47,244.00 219.00,244.63
          215.47,245.52 206.85,247.57 204.00,249.14
          200.49,251.06 195.03,256.97 192.00,260.00
          186.73,265.28 183.15,267.18 183.00,275.00
          183.00,275.00 183.00,286.00 183.00,286.00
          191.72,279.76 203.40,264.57 211.00,260.68
          219.48,256.34 237.29,255.40 244.00,250.00 Z
        M 73.00,256.43
        C 81.77,255.47 84.09,259.63 79.21,267.00
          79.21,267.00 55.56,296.95 55.56,296.95
          50.58,302.41 45.81,302.07 39.00,303.00
          39.00,303.00 18.00,306.00 18.00,306.00
          18.00,306.00 5.02,307.61 5.02,307.61
          -2.21,306.96 0.25,299.91 3.06,296.00
          3.06,296.00 27.61,265.28 27.61,265.28
          31.41,261.62 37.05,261.73 42.00,260.92
          42.00,260.92 73.00,256.43 73.00,256.43 Z
        M 274.15,256.74
        C 278.69,255.68 283.42,256.90 288.00,257.58
          288.00,257.58 311.00,260.92 311.00,260.92
          314.51,261.50 321.08,262.02 323.83,263.85
          326.36,265.54 333.42,275.03 335.80,278.00
          335.80,278.00 351.30,298.00 351.30,298.00
          353.03,301.02 353.89,305.61 349.85,307.22
          347.16,308.30 334.58,305.95 331.00,305.42
          325.19,304.56 304.93,302.38 301.04,300.07
          297.26,297.82 289.61,287.02 286.40,283.00
          286.40,283.00 273.14,266.00 273.14,266.00
          270.82,262.10 270.21,259.48 274.15,256.74 Z
        M 175.10,314.03
        C 176.71,313.74 177.07,313.31 178.78,314.03
          182.15,316.00 185.67,327.18 187.20,331.00
          189.38,336.46 197.75,355.51 197.81,360.00
          197.86,364.72 190.73,380.67 188.60,386.00
          188.60,386.00 181.59,402.94 181.59,402.94
          180.16,405.29 178.07,407.29 175.10,406.34
          170.60,404.92 166.21,390.52 164.40,386.00
          162.27,380.67 155.14,364.72 155.19,360.00
          155.25,355.54 163.26,337.35 165.40,332.00
          167.63,326.42 169.83,316.89 175.10,314.03 Z"
  />
</svg>
