<svg
  xmlns="http://www.w3.org/2000/svg"
  width="256"
  height="256"
  viewBox="0 0 329 379"
>
  <path
    id="Selection"
    fill="#acd9e8"
    stroke="black"
    stroke-width="0"
    d="M 158.00,134.00
           C 158.00,134.00 158.00,81.00 158.00,81.00
             157.98,68.10 154.11,70.07 149.34,59.00
             146.00,51.27 144.33,41.39 145.17,33.00
             146.09,23.80 149.72,14.39 155.29,7.02
             157.63,3.91 160.73,0.51 165.00,0.72
             169.13,0.93 172.25,4.94 174.51,8.00
             179.86,15.26 183.28,25.01 183.91,34.00
             184.48,42.13 183.04,51.56 179.69,59.00
             174.71,70.03 171.02,68.41 171.00,81.00
             171.00,81.00 171.00,134.00 171.00,134.00
             175.86,133.59 188.14,131.70 190.26,126.87
             190.26,126.87 193.15,110.00 193.15,110.00
             196.75,96.52 203.85,83.74 214.01,74.09
             216.49,71.73 219.24,69.65 222.00,67.64
             224.17,66.07 226.40,64.44 229.00,63.65
             235.21,61.76 241.51,65.17 241.80,72.00
             241.80,72.00 241.15,78.00 241.15,78.00
             239.67,90.47 237.06,100.08 230.55,111.00
             226.44,117.88 221.19,124.29 215.00,129.39
             212.30,131.61 205.75,135.77 205.06,139.09
             204.35,142.51 208.00,152.28 209.00,156.00
             209.00,156.00 245.00,135.20 245.00,135.20
             245.00,135.20 260.89,125.61 260.89,125.61
             264.76,122.21 267.44,113.89 272.33,108.00
             282.07,96.26 292.54,92.55 307.00,90.58
             311.71,89.94 321.91,90.07 325.85,92.85
             329.98,95.76 329.20,100.85 327.76,105.00
             324.72,113.70 318.19,121.83 311.00,127.48
             303.84,133.11 289.13,138.47 280.00,137.81
             275.84,137.52 273.32,136.31 269.00,137.81
             269.00,137.81 216.00,167.00 216.00,167.00
             218.77,170.37 225.83,179.32 230.00,180.03
             232.58,180.46 243.16,175.63 247.00,174.66
             262.14,170.87 279.23,171.54 294.00,176.69
             298.74,178.35 307.05,180.76 308.57,186.04
             311.79,197.20 301.24,200.25 293.00,203.14
             280.21,207.61 263.23,208.36 250.00,205.49
             250.00,205.49 231.00,199.31 231.00,199.31
             225.91,199.41 219.18,208.34 216.00,212.00
             216.00,212.00 255.00,233.85 255.00,233.85
             255.00,233.85 269.00,241.85 269.00,241.85
             271.90,242.72 278.43,241.96 282.00,241.85
             291.98,242.12 303.07,245.57 311.00,251.68
             318.32,257.32 324.41,265.26 327.48,274.00
             328.74,277.27 330.00,282.59 327.48,285.49
             324.13,289.14 314.60,289.05 310.00,289.00
             294.56,288.82 281.03,282.07 271.38,270.00
             267.34,264.96 264.42,256.57 260.87,253.63
             260.87,253.63 248.00,245.99 248.00,245.99
             248.00,245.99 209.00,223.00 209.00,223.00
             209.00,223.00 204.00,243.00 204.00,243.00
             221.56,249.72 235.60,273.21 239.58,291.00
             241.16,298.09 244.63,311.06 236.90,315.31
             234.73,316.50 232.41,316.92 230.00,316.32
             225.88,315.28 219.15,309.83 216.00,306.91
             205.86,297.51 197.52,285.43 193.75,272.00
             193.75,272.00 191.17,260.00 191.17,260.00
             190.84,257.07 191.27,253.86 189.26,251.42
             186.45,247.99 175.46,245.84 171.00,245.00
             171.00,245.00 171.00,299.00 171.00,299.00
             171.02,310.37 174.39,309.47 179.02,319.00
             181.99,325.11 183.92,333.21 184.00,340.00
             184.12,351.36 181.31,361.57 174.78,371.00
             172.15,374.79 168.23,379.64 163.00,378.53
             158.97,377.67 155.67,373.28 153.55,370.00
             147.84,361.21 144.78,350.47 145.01,340.00
             145.16,333.58 146.90,325.81 149.63,320.00
             154.21,310.26 157.98,310.16 158.00,299.00
             158.00,299.00 158.00,245.00 158.00,245.00
             153.56,245.84 142.61,247.93 139.85,251.42
             137.87,253.93 137.73,261.36 137.00,265.00
             135.45,272.62 131.97,282.38 127.93,289.00
             122.26,298.32 111.75,310.04 102.00,315.08
             96.56,317.90 89.64,316.16 87.80,309.96
             86.66,306.85 87.59,303.20 87.80,300.00
             87.80,300.00 89.89,289.00 89.89,289.00
             93.34,275.29 99.43,264.46 109.42,254.42
             109.42,254.42 123.31,242.48 123.31,242.48
             125.98,238.73 121.03,227.40 120.00,223.00
             120.00,223.00 81.00,245.99 81.00,245.99
             81.00,245.99 68.13,253.63 68.13,253.63
             64.58,256.57 61.66,264.96 57.62,270.00
             47.97,282.06 34.43,288.82 19.00,289.00
             14.64,289.05 4.76,288.92 1.60,285.49
             -0.90,282.50 0.19,277.35 1.60,274.00
             4.77,265.29 10.52,257.32 18.00,251.76
             26.30,245.59 36.66,242.12 47.00,241.85
             50.57,241.96 57.10,242.72 60.00,241.85
             60.00,241.85 77.00,232.20 77.00,232.20
             77.00,232.20 113.00,212.00 113.00,212.00
             109.78,208.29 103.11,199.72 98.00,199.37
             95.23,199.18 84.89,204.05 81.00,205.08
             66.34,208.94 47.06,207.46 33.00,202.00
             25.43,199.05 17.45,196.14 20.43,186.09
             21.98,180.87 30.32,178.36 35.00,176.69
             50.07,171.33 66.55,171.08 82.00,174.90
             85.21,175.69 97.49,180.94 99.42,180.43
             102.59,179.58 110.79,169.91 113.00,167.00
             113.00,167.00 60.00,137.80 60.00,137.80
             54.96,136.06 51.81,138.05 47.00,137.80
             37.32,137.28 25.63,133.48 18.00,127.48
             10.93,121.93 4.28,113.54 1.25,105.00
             -0.07,101.32 -0.89,96.50 2.31,93.51
             4.78,91.21 8.82,91.04 12.00,90.58
             20.89,89.30 32.91,91.61 41.00,95.49
             48.01,98.86 55.35,105.49 59.56,112.00
             62.29,116.22 64.67,122.59 68.11,125.61
             68.11,125.61 86.00,136.28 86.00,136.28
             86.00,136.28 120.00,156.00 120.00,156.00
             121.00,152.30 124.90,142.37 124.10,139.09
             123.32,135.86 111.51,127.58 108.29,123.99
             97.68,112.18 91.79,100.57 88.80,85.00
             88.32,82.46 86.98,72.09 87.47,70.00
             87.98,67.82 89.27,66.01 91.11,64.74
             98.93,59.30 109.53,69.13 114.99,74.17
             130.83,88.78 137.31,109.12 139.00,130.00
             139.00,130.00 158.00,134.00 158.00,134.00 Z
           M 102.00,80.00
           C 101.19,84.04 103.01,88.23 104.42,92.00
             108.04,101.61 115.48,115.49 125.00,120.00
             119.56,101.36 116.02,94.06 102.00,80.00 Z
           M 228.00,81.00
           C 216.58,86.45 206.05,107.46 205.00,120.00
             218.18,110.53 223.65,95.88 228.00,81.00 Z
           M 192.00,143.00
           C 182.34,145.18 173.14,148.35 163.00,147.96
             154.50,147.63 146.05,145.63 138.00,143.00
             138.00,143.00 128.54,168.00 128.54,168.00
             128.54,168.00 111.00,190.00 111.00,190.00
             123.53,202.53 135.35,217.63 137.00,236.00
             152.21,233.85 146.51,231.97 167.00,232.00
             180.36,232.02 181.37,234.50 192.00,236.00
             193.48,225.48 197.74,214.64 203.91,206.00
             203.91,206.00 218.00,189.00 218.00,189.00
             204.97,175.97 193.73,162.18 192.00,143.00 Z
           M 160.00,157.44
           C 171.00,156.03 181.98,159.60 189.32,168.17
             202.50,183.56 198.44,209.32 180.00,218.62
             173.82,221.75 169.74,222.08 163.00,222.00
             137.86,221.70 124.30,194.11 136.36,173.00
             141.78,163.51 149.64,159.38 160.00,157.44 Z
           M 163.00,170.34
           C 154.82,171.83 148.26,176.80 145.80,185.00
             142.50,196.00 151.83,208.09 163.00,208.90
             183.42,210.40 192.90,181.98 172.00,172.05
             168.81,170.53 166.46,170.25 163.00,170.34 Z
           M 83.00,191.00
           C 80.30,187.00 75.52,186.89 71.00,186.28
             61.55,185.01 47.41,185.01 39.00,190.00
             56.89,196.59 65.54,193.46 83.00,191.00 Z
           M 290.00,189.00
           C 275.87,186.16 258.39,181.81 245.00,190.00
             257.26,194.08 278.84,196.95 290.00,189.00 Z
           M 124.00,260.00
           C 113.05,267.84 103.22,284.44 102.00,298.00
             113.20,289.98 122.75,273.84 124.00,260.00 Z
           M 206.00,260.00
           C 204.68,264.01 206.60,268.18 208.06,272.00
             211.91,282.06 218.18,291.68 227.00,298.00
             225.65,282.96 216.30,270.31 206.00,260.00 Z
           M 228.00,298.00
           C 228.00,298.00 227.00,298.00 227.00,298.00
             227.00,298.00 228.00,299.00 228.00,299.00
             228.00,299.00 228.00,298.00 228.00,298.00 Z"
  />
</svg>
