<svg
  xmlns="http://www.w3.org/2000/svg"
  width="256"
  height="256"
  viewBox="0 0 313 356"
>
  <path
    id="Selection"
    fill="#acd9e8"
    stroke="black"
    stroke-width="0"
    d="M 152.00,0.57
           C 156.65,-0.27 161.68,-0.57 165.56,2.65
             173.96,9.63 171.13,24.06 161.00,27.20
             143.55,32.61 135.16,7.23 152.00,0.57 Z
           M 157.00,44.00
           C 159.84,40.03 167.70,31.29 172.00,29.33
             175.70,27.64 180.46,28.83 181.55,33.10
             182.37,36.29 180.82,38.67 178.85,41.00
             175.50,44.97 162.50,58.58 158.00,59.53
             151.52,60.89 140.31,47.55 136.04,43.00
             134.23,41.07 131.98,38.72 131.54,36.00
             130.84,31.72 134.71,27.92 139.00,28.68
             142.43,29.28 145.61,32.66 148.00,35.00
             148.00,35.00 157.00,44.00 157.00,44.00 Z
           M 150.00,152.00
           C 150.00,152.00 150.00,109.00 150.00,109.00
             149.98,98.34 146.38,97.38 139.00,90.00
             139.00,90.00 114.60,65.00 114.60,65.00
             111.12,59.45 114.83,53.42 121.00,54.66
             125.25,55.51 129.97,60.97 133.00,64.00
             133.00,64.00 157.00,88.00 157.00,88.00
             160.40,83.25 182.30,61.00 187.00,57.28
             194.43,51.38 200.70,55.49 199.76,61.96
             199.15,66.09 192.97,71.03 190.00,74.00
             190.00,74.00 173.00,91.00 173.00,91.00
             166.71,97.29 163.06,98.78 163.00,108.00
             163.00,108.00 163.00,137.00 163.00,137.00
             163.00,140.04 162.54,147.33 164.02,149.73
             164.02,149.73 177.00,159.00 177.00,159.00
             181.33,154.58 201.37,143.81 208.00,140.00
             210.90,138.34 217.49,134.93 219.44,132.62
             221.33,130.39 223.00,123.12 223.85,120.00
             223.85,120.00 230.87,93.00 230.87,93.00
             232.16,87.87 233.62,79.71 240.96,81.33
             247.26,82.73 245.74,89.51 244.63,94.00
             244.63,94.00 234.00,133.00 234.00,133.00
             234.00,133.00 271.00,142.85 271.00,142.85
             275.40,144.04 281.35,144.67 282.53,150.02
             282.87,151.59 282.65,153.38 281.82,154.77
             278.31,160.69 266.20,155.61 261.00,154.14
             261.00,154.14 239.00,148.12 239.00,148.12
             236.12,147.36 230.73,145.47 228.00,145.69
             224.84,145.94 219.88,149.20 217.00,150.85
             217.00,150.85 195.00,163.60 195.00,163.60
             192.76,164.93 185.96,168.61 184.69,170.39
             183.49,172.06 183.62,179.79 183.89,181.98
             184.60,187.73 197.14,193.07 202.00,195.85
             202.00,195.85 219.00,205.72 219.00,205.72
             220.99,206.86 225.36,209.68 227.41,209.95
             229.51,210.23 237.43,207.79 240.00,207.12
             240.00,207.12 274.00,198.18 274.00,198.18
             284.08,197.28 285.54,206.58 277.98,210.43
             277.98,210.43 259.00,215.88 259.00,215.88
             259.00,215.88 235.00,222.00 235.00,222.00
             235.00,222.00 244.42,261.00 244.42,261.00
             245.69,265.64 247.69,273.00 240.96,274.53
             233.83,276.14 232.41,267.92 231.00,263.00
             231.00,263.00 223.88,236.00 223.88,236.00
             223.10,233.04 221.62,225.55 220.07,223.38
             218.28,220.88 212.79,218.18 210.00,216.58
             210.00,216.58 188.00,203.85 188.00,203.85
             185.56,202.46 179.52,198.59 177.00,198.55
             174.69,198.51 172.91,199.98 171.00,201.04
             163.52,205.19 163.02,203.69 163.00,213.00
             163.00,213.00 163.00,248.00 163.00,248.00
             163.15,256.12 167.53,258.53 173.00,264.00
             173.00,264.00 198.40,290.00 198.40,290.00
             203.01,297.32 196.32,304.01 189.00,299.40
             189.00,299.40 166.00,277.00 166.00,277.00
             163.80,274.81 159.41,269.30 156.00,270.20
             153.76,270.79 148.85,276.17 147.00,278.00
             147.00,278.00 131.00,293.00 131.00,293.00
             128.38,295.61 124.69,299.90 121.00,300.67
             115.19,301.87 110.83,296.35 114.74,290.00
             118.22,284.35 135.24,269.74 141.00,264.00
             146.28,258.75 149.85,256.79 150.00,249.00
             150.00,249.00 150.00,213.00 150.00,213.00
             149.98,203.84 149.50,205.17 142.00,200.90
             140.09,199.81 138.33,198.42 136.00,198.55
             133.56,198.69 126.43,203.17 124.00,204.60
             124.00,204.60 94.30,222.39 94.30,222.39
             91.56,225.17 90.81,230.26 89.87,234.00
             89.87,234.00 83.87,257.00 83.87,257.00
             82.53,262.38 80.85,275.96 73.01,274.63
             66.27,273.48 67.46,266.74 68.63,262.00
             68.63,262.00 79.00,222.00 79.00,222.00
             72.13,221.42 59.36,217.29 52.00,215.37
             48.79,214.54 36.27,211.20 34.11,209.86
             28.23,206.24 29.08,197.30 39.00,198.18
             39.00,198.18 72.00,206.85 72.00,206.85
             75.26,207.73 83.06,210.24 86.00,209.72
             89.22,209.16 107.80,198.01 112.00,195.58
             115.14,193.75 127.57,187.03 129.15,184.62
             130.07,182.64 129.29,179.36 129.15,177.00
             129.48,173.82 130.25,172.20 127.68,169.61
             127.68,169.61 98.00,152.00 98.00,152.00
             94.91,150.22 88.28,145.91 85.00,145.71
             82.71,145.57 73.71,148.22 71.00,149.00
             71.00,149.00 45.00,156.15 45.00,156.15
             40.68,157.31 34.14,159.76 31.18,154.77
             30.36,153.39 30.12,151.60 30.47,150.04
             31.60,145.05 37.84,144.20 42.00,143.00
             42.00,143.00 79.00,133.00 79.00,133.00
             79.00,133.00 67.68,90.00 67.68,90.00
             66.63,83.95 70.57,78.97 76.79,81.74
             80.88,83.56 81.87,91.00 82.87,95.00
             82.87,95.00 92.25,129.96 92.25,129.96
             94.11,134.43 98.03,135.84 102.00,138.20
             102.00,138.20 125.00,151.42 125.00,151.42
             127.56,152.91 133.29,156.82 136.00,156.93
             140.43,157.11 141.24,152.94 150.00,152.00 Z
           M 9.00,82.74
           C 11.74,82.08 13.15,81.89 16.00,82.04
             34.35,83.06 32.07,111.72 13.00,109.80
             -0.42,108.46 -4.99,90.11 9.00,82.74 Z
           M 294.00,82.65
           C 298.62,81.69 303.90,81.48 307.79,84.65
             316.28,91.56 313.23,106.04 303.00,109.20
             285.83,114.50 276.84,89.88 294.00,82.65 Z
           M 272.00,111.00
           C 275.51,111.71 290.55,115.37 292.85,116.93
             294.40,117.98 295.27,119.18 295.67,121.02
             296.67,125.67 293.53,128.82 289.00,128.85
             286.08,128.87 274.53,125.41 271.00,124.42
             268.68,123.78 263.94,122.76 262.06,121.70
             260.01,120.55 258.89,119.29 258.32,116.98
             257.33,112.99 262.25,95.82 263.64,91.00
             264.64,87.55 266.01,84.37 270.01,83.76
             274.97,82.99 276.95,86.67 276.94,91.00
             276.93,95.88 273.77,106.26 272.00,111.00 Z
           M 41.00,111.00
           C 41.00,111.00 36.30,93.00 36.30,93.00
             35.95,90.30 35.91,86.90 38.43,85.17
             41.49,83.08 46.06,84.18 48.07,87.15
             49.32,88.99 50.29,93.68 50.87,96.00
             51.95,100.29 54.88,110.26 54.95,114.00
             54.98,116.18 54.83,118.62 53.26,120.30
             51.63,122.05 48.25,122.77 46.00,123.42
             46.00,123.42 30.00,127.87 30.00,127.87
             26.39,128.73 21.39,130.02 18.60,126.69
             16.11,123.70 17.17,119.22 20.23,117.09
             22.54,115.46 37.49,111.71 41.00,111.00 Z
           M 111.02,95.75
           C 119.53,94.12 123.63,101.60 129.00,107.00
             132.34,110.36 144.29,121.27 145.30,125.00
             146.01,127.65 144.44,130.82 143.03,133.00
             138.03,140.75 130.85,143.35 122.00,142.98
             114.80,142.68 115.01,137.97 113.29,132.00
             113.29,132.00 107.15,111.00 107.15,111.00
             106.36,107.92 105.41,103.08 106.60,100.04
             107.62,97.43 108.78,97.00 111.02,95.75 Z
           M 197.00,143.00
           C 186.35,143.00 176.67,143.56 170.35,133.00
             169.27,131.18 167.68,128.15 167.98,126.00
             168.58,121.71 179.66,111.34 183.00,108.00
             186.36,104.64 193.59,96.40 198.00,95.47
             203.63,94.28 208.19,99.53 207.63,105.00
             207.63,105.00 197.00,143.00 197.00,143.00 Z
           M 102.00,161.48
           C 113.61,160.76 114.19,177.97 111.67,186.00
             110.70,189.12 108.51,193.75 104.90,194.27
             102.80,194.57 96.37,192.72 94.00,192.13
             94.00,192.13 67.06,184.86 67.06,184.86
             63.14,182.53 61.80,177.17 64.17,173.22
             66.20,169.86 71.45,169.02 75.00,168.13
             75.00,168.13 102.00,161.48 102.00,161.48 Z
           M 206.33,162.04
           C 210.77,160.58 214.58,162.27 219.00,163.37
             219.00,163.37 242.00,169.16 242.00,169.16
             245.82,170.25 249.44,171.65 250.34,176.02
             252.19,185.00 241.10,186.60 235.00,188.13
             235.00,188.13 217.00,192.63 217.00,192.63
             214.79,193.18 210.13,194.60 208.04,194.10
             204.60,193.28 202.62,189.07 201.60,186.00
             198.96,178.08 199.73,167.76 206.33,162.04 Z
           M 153.00,164.42
           C 137.33,169.97 141.59,189.87 155.00,191.63
             169.09,193.49 177.41,172.86 162.99,165.45
             159.67,163.75 156.55,163.91 153.00,164.42 Z
           M 119.13,212.57
           C 128.08,210.86 136.23,213.80 141.83,221.09
             143.59,223.38 145.93,226.97 145.22,230.00
             144.51,232.99 140.22,236.71 138.09,239.00
             133.82,243.59 122.13,257.54 117.00,259.40
             110.28,261.84 105.94,257.61 106.05,251.00
             106.15,245.62 111.65,229.20 113.42,223.00
             114.71,218.48 114.70,214.76 119.13,212.57 Z
           M 186.00,212.47
           C 189.10,212.04 193.75,211.49 196.28,213.82
             198.11,215.52 199.42,221.46 200.14,224.00
             201.55,228.98 207.75,248.43 207.64,252.00
             207.47,257.46 203.30,260.56 198.00,259.76
             191.75,258.82 186.04,250.43 181.91,246.00
             179.04,242.92 169.37,234.11 168.21,231.00
             167.42,228.91 168.04,226.93 168.92,225.00
             172.20,217.79 178.64,214.22 186.00,212.47 Z
           M 41.00,244.00
           C 36.87,243.65 23.17,240.58 20.15,238.28
             17.15,236.00 16.06,231.61 18.74,228.65
             21.73,225.34 26.30,226.69 30.00,227.63
             30.00,227.63 46.00,232.12 46.00,232.12
             48.49,232.79 51.65,233.37 53.40,235.43
             54.78,237.03 54.95,238.98 54.94,241.00
             54.93,244.94 50.14,264.45 48.35,267.89
             46.44,271.58 41.68,273.21 38.31,270.40
             33.44,266.33 39.40,249.52 41.00,244.00 Z
           M 272.00,244.00
           C 273.55,248.21 277.18,260.87 276.93,265.00
             276.69,268.94 274.44,272.38 270.01,271.63
             266.93,271.10 265.31,268.71 264.26,266.00
             264.26,266.00 258.19,242.00 258.19,242.00
             258.01,239.71 258.20,237.27 259.74,235.43
             262.19,232.50 277.53,229.28 282.00,228.22
             285.82,226.91 291.26,224.83 294.40,228.22
             297.02,231.43 296.05,236.46 292.77,238.56
             289.68,240.54 275.99,243.66 272.00,244.00 Z
           M 10.00,246.65
           C 13.64,245.90 17.54,245.61 21.00,247.31
             33.46,253.46 29.97,275.51 13.00,273.80
             -0.76,272.42 -4.57,252.78 10.00,246.65 Z
           M 294.00,246.87
           C 297.59,245.91 301.53,245.55 304.98,246.87
             318.48,253.09 313.69,275.59 297.00,273.80
             282.83,272.28 280.01,252.58 294.00,246.87 Z
           M 156.00,295.90
           C 163.52,296.41 168.98,303.96 174.00,309.00
             176.14,311.15 179.50,314.32 180.82,317.00
             183.40,322.23 180.13,327.94 174.00,326.67
             167.81,325.38 161.50,314.04 157.00,314.04
             151.85,314.04 143.69,329.84 135.13,326.26
             130.18,324.19 131.12,318.63 133.65,315.01
             135.77,311.98 139.26,309.46 142.00,306.91
             146.40,302.81 150.06,297.56 156.00,295.90 Z
           M 152.00,328.57
           C 155.82,327.88 159.40,327.63 163.00,329.45
             176.69,336.39 170.29,357.44 155.00,355.80
             140.62,354.26 138.10,334.06 152.00,328.57 Z"
  />
</svg>
