<svg
  xmlns="http://www.w3.org/2000/svg"
  width="256"
  height="256"
  viewBox="0 0 346 395"
>
  <path
    id="Selection"
    fill="#acd9e8"
    stroke="black"
    stroke-width="0"
    d="M 170.00,0.56
        C 175.70,-0.39 181.28,0.71 185.20,5.33
          192.18,13.53 188.83,26.85 178.00,29.47
          158.87,34.09 150.64,7.32 170.00,0.56 Z
        M 167.00,77.00
        C 167.00,77.00 167.00,51.00 167.00,51.00
          167.07,46.08 168.17,39.00 174.98,40.36
          180.39,41.43 179.99,46.74 180.00,51.00
          180.00,51.00 180.00,76.00 180.00,76.00
          180.00,76.00 190.00,69.12 190.00,69.12
          193.12,66.82 196.99,63.37 201.00,63.19
          206.52,62.95 209.44,68.10 206.82,72.83
          203.53,78.79 182.92,89.24 180.60,95.09
          179.88,96.90 180.00,100.02 180.00,102.00
          180.00,102.00 180.00,133.00 180.00,133.00
          180.00,133.00 212.00,108.20 212.00,108.20
          215.85,105.14 221.45,99.89 226.72,103.18
          231.15,105.94 229.31,113.60 228.84,118.00
          228.84,118.00 224.00,160.00 224.00,160.00
          224.00,160.00 247.00,147.28 247.00,147.28
          249.90,145.63 256.57,142.23 258.40,139.79
          261.79,135.27 261.28,112.56 263.73,107.13
          266.14,101.82 273.91,102.59 275.57,108.10
          276.68,111.79 274.12,126.62 274.00,132.00
          274.00,132.00 297.00,118.78 297.00,118.78
          299.93,117.28 303.64,115.31 306.89,117.04
          311.61,119.54 311.52,125.05 307.77,128.37
          307.77,128.37 282.00,143.00 282.00,143.00
          282.00,143.00 302.57,153.41 302.57,153.41
          307.35,158.40 303.09,165.13 297.00,164.51
          297.00,164.51 267.00,152.88 267.00,152.88
          264.16,153.05 258.63,156.65 256.00,158.15
          256.00,158.15 232.00,172.00 232.00,172.00
          232.00,172.00 273.00,188.20 273.00,188.20
          277.99,190.23 284.34,193.20 280.54,199.79
          278.46,203.40 269.93,206.16 266.00,207.85
          257.84,211.35 237.22,219.60 231.00,224.00
          238.17,227.11 247.13,232.69 254.00,236.80
          256.48,238.29 262.47,242.22 265.00,242.62
          267.88,243.08 271.36,241.13 274.00,240.00
          278.19,238.20 291.62,231.64 295.00,231.23
          303.24,230.23 305.28,237.29 301.49,241.61
          299.27,244.14 284.49,250.44 280.00,253.00
          285.24,254.65 298.76,262.77 303.98,266.01
          307.36,268.11 310.53,270.48 309.53,274.98
          308.37,280.20 303.22,280.59 299.00,279.01
          299.00,279.01 274.00,265.00 274.00,265.00
          274.00,265.00 275.77,286.98 275.77,286.98
          275.06,290.89 272.13,293.45 268.04,292.53
          263.27,291.45 263.16,286.95 262.58,283.00
          261.81,277.74 260.92,259.54 258.40,256.38
          256.75,254.30 249.61,250.35 247.00,248.85
          247.00,248.85 225.00,236.00 225.00,236.00
          225.00,236.00 230.00,274.00 230.00,274.00
          230.55,278.03 232.27,286.29 229.40,289.57
          225.27,294.30 218.75,289.54 215.00,286.85
          215.00,286.85 179.00,260.00 179.00,260.00
          179.00,260.00 179.00,292.00 179.00,292.00
          179.00,294.02 178.88,297.11 179.60,298.96
          182.09,305.44 202.62,315.38 205.82,321.17
          208.44,325.91 205.52,331.05 200.00,330.81
          196.12,330.65 192.07,327.33 189.00,325.14
          189.00,325.14 179.00,318.00 179.00,318.00
          179.00,318.00 179.00,344.00 179.00,344.00
          178.93,349.01 176.96,356.82 170.05,354.38
          165.75,352.87 165.49,348.83 165.88,345.00
          165.88,345.00 165.88,318.00 165.88,318.00
          162.64,320.84 150.63,330.14 147.00,331.30
          143.16,332.52 139.25,331.24 138.33,326.98
          137.06,321.10 143.03,317.75 147.00,314.85
          150.86,312.03 163.89,303.50 165.40,299.83
          166.12,298.08 166.00,294.93 166.00,293.00
          166.00,293.00 166.00,261.00 166.00,261.00
          166.00,261.00 133.00,287.21 133.00,287.21
          129.42,289.98 123.19,295.32 118.65,291.26
          114.93,287.94 116.69,280.48 117.16,276.00
          117.16,276.00 122.00,234.00 122.00,234.00
          122.00,234.00 98.00,248.00 98.00,248.00
          95.57,249.40 89.19,252.75 87.60,254.61
          85.92,256.56 85.60,260.46 85.28,263.00
          85.28,263.00 83.42,281.00 83.42,281.00
          82.86,285.08 82.99,289.58 77.98,290.67
          73.77,291.58 70.77,289.09 70.15,285.00
          70.15,285.00 72.00,263.00 72.00,263.00
          72.00,263.00 44.00,278.16 44.00,278.16
          38.16,279.55 34.28,274.51 35.78,270.04
          36.96,266.53 40.99,264.45 44.00,262.72
          44.00,262.72 64.00,251.00 64.00,251.00
          58.51,249.09 42.77,243.88 41.47,237.98
          40.24,232.39 44.97,229.54 50.00,230.54
          50.00,230.54 77.00,241.69 77.00,241.69
          81.02,242.39 84.65,239.62 88.00,237.72
          94.52,234.02 108.51,227.10 113.00,222.00
          106.37,220.80 83.61,211.13 76.00,207.99
          72.13,206.39 65.49,204.48 64.47,199.96
          62.99,193.34 70.32,190.99 75.00,189.00
          75.00,189.00 116.00,171.00 116.00,171.00
          110.02,169.25 97.90,161.54 92.00,158.00
          89.33,156.40 83.83,152.81 81.00,152.29
          77.43,151.65 74.11,153.76 71.00,155.22
          67.26,156.97 53.22,163.46 50.00,163.75
          45.37,164.16 41.67,160.80 42.75,156.04
          44.12,150.03 60.50,145.04 66.00,142.00
          61.62,140.39 42.22,129.54 39.15,126.62
          35.62,123.28 35.02,117.63 40.11,115.60
          43.64,114.19 47.93,116.19 51.00,117.87
          51.00,117.87 72.00,130.00 72.00,130.00
          71.59,124.89 69.01,110.00 70.60,106.08
          72.72,100.80 80.07,101.06 82.26,106.08
          82.26,106.08 85.16,129.00 85.16,129.00
          85.45,131.70 85.91,136.52 87.60,138.61
          89.05,140.41 95.65,144.00 98.00,145.40
          98.00,145.40 121.00,159.00 121.00,159.00
          121.00,159.00 115.73,120.00 115.73,120.00
          115.11,115.71 113.15,108.07 116.70,104.74
          121.14,100.58 127.36,105.42 131.00,108.13
          131.00,108.13 167.00,135.00 167.00,135.00
          167.00,135.00 167.00,103.00 167.00,103.00
          167.00,100.95 167.11,97.90 166.40,96.01
          163.80,89.13 143.70,79.80 140.18,73.70
          136.99,68.19 141.00,63.36 147.00,64.24
          150.60,64.77 154.08,67.62 157.00,69.71
          157.00,69.71 167.00,77.00 167.00,77.00 Z
        M 10.00,91.65
        C 14.94,90.63 20.67,90.43 24.90,93.65
          31.51,98.69 31.87,111.05 25.79,116.61
          22.42,119.69 18.38,120.19 14.00,119.96
          -1.70,119.14 -3.98,97.57 10.00,91.65 Z
        M 328.00,92.48
        C 333.64,91.79 339.75,93.28 343.30,98.10
          350.86,108.39 342.72,122.97 330.00,121.89
          313.65,120.51 311.09,97.36 328.00,92.48 Z
        M 215.00,124.00
        C 207.74,127.74 193.28,140.01 186.00,145.65
          182.77,148.15 177.05,153.64 173.00,153.72
          168.77,153.81 162.39,148.17 159.00,145.63
          151.57,140.06 137.55,128.88 130.00,125.00
          130.00,125.00 136.06,169.83 136.06,169.83
          136.59,177.65 131.19,179.35 125.00,182.00
          125.00,182.00 89.00,198.00 89.00,198.00
          93.75,201.44 114.21,208.88 121.00,211.60
          124.54,213.02 132.18,215.53 134.48,218.27
          137.55,221.94 135.83,229.55 135.28,234.00
          135.28,234.00 131.00,271.00 131.00,271.00
          131.00,271.00 160.00,249.00 160.00,249.00
          163.20,246.46 168.86,241.11 173.00,241.11
          176.97,241.11 182.76,246.24 186.00,248.58
          186.00,248.58 216.00,270.00 216.00,270.00
          216.00,270.00 210.89,234.00 210.89,234.00
          210.45,229.96 208.52,222.61 210.89,219.11
          212.95,215.72 221.14,212.65 225.00,211.00
          232.07,207.97 252.94,199.67 258.00,196.00
          258.00,196.00 220.00,181.20 220.00,181.20
          214.03,178.80 209.08,177.54 209.62,170.00
          209.62,170.00 215.00,124.00 215.00,124.00 Z
        M 167.00,168.47
        C 176.69,167.11 186.65,169.04 193.82,176.18
          210.65,192.95 201.30,222.33 178.00,226.54
          149.02,231.77 131.25,194.63 153.04,175.21
          157.00,171.68 161.90,169.68 167.00,168.47 Z
        M 171.00,181.34
        C 164.94,182.79 159.96,185.79 157.85,192.00
          154.17,202.84 163.21,215.38 175.00,213.48
          195.40,210.20 192.58,179.92 171.00,181.34 Z
        M 225.00,235.00
        C 225.00,235.00 224.00,235.00 224.00,235.00
          224.00,235.00 225.00,236.00 225.00,236.00
          225.00,236.00 225.00,235.00 225.00,235.00 Z
        M 10.00,273.57
        C 15.88,272.51 21.22,272.66 25.61,277.33
          32.77,284.95 29.03,299.09 19.00,302.06
          0.61,307.49 -8.46,280.82 10.00,273.57 Z
        M 331.00,274.61
        C 350.49,275.77 348.82,302.78 332.00,303.95
          322.16,304.63 316.55,299.85 315.82,290.00
          315.57,286.67 315.80,283.90 317.72,281.04
          321.16,275.93 325.33,275.10 331.00,274.61 Z
        M 167.00,365.65
        C 172.85,364.44 178.32,364.69 182.78,369.21
          190.73,377.28 186.83,391.05 176.00,394.06
          158.52,398.91 148.42,373.47 167.00,365.65 Z"
  />
</svg>
