<svg
  xmlns="http://www.w3.org/2000/svg"
  width="256"
  height="256"
  viewBox="0 0 312 359"
>
  <path
    id="Selection"
    fill="#acd9e8"
    stroke="black"
    stroke-width="0"
    d="M 149.00,27.00
           C 149.00,22.77 148.53,8.05 149.74,5.02
             151.84,-0.26 157.54,-1.08 160.40,2.31
             162.29,4.55 161.99,8.24 162.00,11.00
             162.00,11.00 162.00,29.00 162.00,29.00
             165.25,25.78 169.81,20.31 174.96,21.47
             177.33,22.01 178.99,23.67 179.53,26.04
             181.20,33.46 167.35,42.07 163.60,48.00
             160.91,52.25 162.00,65.53 162.00,71.00
             162.00,71.00 173.00,60.00 173.00,60.00
             175.80,57.20 181.52,50.84 185.00,49.60
             191.55,47.28 195.93,53.03 192.98,59.00
             191.23,62.53 174.03,78.96 170.00,83.00
             167.59,85.41 163.77,88.82 162.60,92.00
             161.88,93.94 162.00,96.91 162.00,99.00
             162.00,99.00 162.00,149.00 162.00,149.00
             166.10,149.64 168.38,150.32 172.00,152.48
             174.25,153.81 177.44,156.68 180.00,156.72
             182.48,156.76 190.40,151.63 193.00,150.15
             193.00,150.15 219.00,135.15 219.00,135.15
             222.48,133.16 228.95,130.02 231.07,126.82
             232.59,124.52 234.14,117.91 234.87,115.00
             234.87,115.00 240.29,95.00 240.29,95.00
             241.60,90.38 242.07,84.23 248.01,83.50
             253.33,82.84 255.20,87.53 254.80,92.00
             254.80,92.00 248.00,118.00 248.00,118.00
             252.94,115.80 265.24,109.49 267.70,104.96
             270.76,99.31 270.96,84.07 278.04,82.47
             279.60,82.12 281.39,82.36 282.77,83.18
             287.84,86.19 285.28,93.59 284.00,98.00
             287.77,95.30 299.80,87.82 304.00,87.24
             310.04,86.40 314.04,91.24 310.82,96.79
             309.04,99.88 294.99,107.39 291.00,110.00
             293.48,110.81 298.64,112.10 300.43,113.72
             303.85,116.82 303.32,122.42 298.89,124.26
             293.42,126.54 278.33,119.84 274.42,120.11
             271.57,120.30 257.46,129.01 254.00,131.00
             254.00,131.00 281.89,138.80 281.89,138.80
             285.43,140.61 287.18,145.11 284.82,148.57
             282.48,152.02 276.42,150.88 273.00,150.11
             273.00,150.11 243.00,142.13 243.00,142.13
             235.26,140.33 232.56,143.40 226.00,147.15
             226.00,147.15 200.00,162.20 200.00,162.20
             197.18,163.88 189.30,167.97 187.77,170.33
             186.50,172.28 186.81,182.23 186.98,185.00
             187.09,186.93 187.20,188.06 188.48,189.62
             190.41,191.97 203.49,198.98 207.00,201.00
             207.00,201.00 228.00,213.15 228.00,213.15
             230.90,214.81 235.82,218.05 239.00,218.31
             241.77,218.54 248.11,216.53 251.00,215.71
             251.00,215.71 270.00,210.63 270.00,210.63
             272.78,209.91 278.31,208.25 280.98,208.74
             287.27,209.90 288.41,217.33 282.87,220.72
             282.87,220.72 255.00,229.00 255.00,229.00
             255.00,229.00 274.00,239.13 274.00,239.13
             278.06,240.01 288.65,235.65 294.00,235.18
             302.89,234.39 304.21,241.04 301.40,244.78
             299.20,247.70 294.34,248.75 291.00,250.00
             294.62,251.61 308.20,258.76 310.26,261.39
             313.53,265.56 311.83,272.14 306.00,272.45
             301.76,272.67 288.99,264.23 284.00,262.00
             284.41,265.08 285.45,269.96 284.57,272.89
             283.16,277.56 277.34,277.72 274.51,275.26
             270.67,271.94 269.79,258.24 266.72,253.18
             264.30,249.18 251.64,243.02 247.00,240.00
             247.00,240.00 253.82,267.00 253.82,267.00
             254.70,276.87 246.61,276.95 243.51,274.26
             240.97,272.07 239.74,265.29 238.85,262.00
             238.85,262.00 230.57,232.21 230.57,232.21
             228.72,228.86 222.38,225.94 219.00,224.00
             219.00,224.00 193.00,209.00 193.00,209.00
             190.79,207.73 182.36,202.53 180.42,202.44
             178.19,202.34 174.95,205.08 173.00,206.24
             168.96,208.66 166.65,209.52 162.00,210.00
             162.00,210.00 162.00,261.00 162.00,261.00
             162.00,263.09 161.88,266.06 162.60,268.00
             163.77,271.18 167.59,274.59 170.00,277.00
             170.00,277.00 185.00,292.00 185.00,292.00
             188.43,295.44 194.73,300.53 193.53,305.98
             192.99,308.41 191.41,310.13 188.96,310.67
             183.11,311.96 176.75,303.75 173.00,300.00
             173.00,300.00 162.00,289.00 162.00,289.00
             162.00,293.57 161.33,307.61 163.02,311.00
             165.60,316.16 176.48,323.69 178.40,329.00
             180.29,334.23 176.94,339.77 171.00,338.02
             167.75,337.06 164.39,333.36 162.00,331.00
             162.00,331.00 162.00,350.00 162.00,350.00
             161.96,352.36 162.06,355.46 160.26,357.26
             157.83,359.69 152.15,359.61 150.01,354.89
             148.38,351.32 149.00,335.84 149.00,331.00
             146.54,333.43 143.49,336.94 140.00,337.67
             135.15,338.68 131.46,334.79 132.47,330.00
             133.76,323.93 145.21,316.54 147.98,311.00
             149.67,307.61 149.00,293.57 149.00,289.00
             149.00,289.00 138.00,300.00 138.00,300.00
             135.13,302.87 129.75,308.91 126.00,310.02
             119.48,311.94 116.41,305.24 119.02,300.00
             120.78,296.47 137.05,280.95 141.00,277.00
             143.41,274.59 147.23,271.18 148.40,268.00
             149.12,266.06 149.00,263.09 149.00,261.00
             149.00,261.00 149.00,210.00 149.00,210.00
             138.78,208.39 136.39,203.05 132.00,202.74
             128.75,202.51 121.06,207.80 118.00,209.58
             118.00,209.58 93.00,224.00 93.00,224.00
             90.06,225.69 83.54,229.07 81.51,231.38
             79.16,234.04 78.27,239.51 77.37,243.00
             77.37,243.00 71.42,265.00 71.42,265.00
             70.08,269.83 69.01,277.08 62.02,275.53
             57.66,274.56 56.79,270.91 57.19,267.00
             57.19,267.00 64.00,241.00 64.00,241.00
             59.00,243.41 46.88,249.48 44.30,254.09
             41.14,259.76 41.01,274.93 33.96,276.53
             32.40,276.88 30.61,276.64 29.23,275.82
             24.16,272.81 26.72,265.41 28.00,261.00
             24.37,263.65 10.99,272.11 7.00,272.43
             1.12,272.90 -1.61,266.96 1.17,262.21
             2.91,259.25 16.91,251.98 21.00,249.00
             18.26,248.20 13.48,247.18 11.43,245.30
             7.87,242.04 8.79,235.83 14.04,234.44
             18.98,233.14 31.96,238.92 37.00,238.76
             41.26,238.62 53.77,230.54 58.00,228.00
             58.00,228.00 34.00,221.71 34.00,221.71
             30.66,220.70 27.20,219.87 26.33,215.96
             23.61,203.64 41.63,209.70 47.00,211.15
             47.00,211.15 73.58,217.97 73.58,217.97
             76.69,217.90 84.06,213.14 87.00,211.40
             87.00,211.40 114.00,195.80 114.00,195.80
             116.56,194.27 122.80,191.06 124.23,188.79
             126.18,185.71 123.93,178.51 126.00,170.00
             126.00,170.00 90.00,149.58 90.00,149.58
             87.08,147.90 76.38,141.37 74.00,140.88
             71.25,140.31 65.92,142.14 63.00,142.87
             63.00,142.87 44.00,148.00 44.00,148.00
             41.31,148.77 34.52,150.79 32.00,150.60
             25.78,150.13 22.95,142.77 28.23,138.85
             28.23,138.85 57.00,130.00 57.00,130.00
             57.00,130.00 38.00,120.27 38.00,120.27
             32.15,119.02 20.13,125.26 15.00,124.40
             9.64,123.49 7.33,117.37 11.31,113.43
             13.30,111.46 18.20,110.19 21.00,109.00
             17.01,107.54 4.00,100.66 1.60,97.62
             -2.59,92.31 1.29,86.31 8.00,87.24
             12.42,87.84 23.91,95.55 29.00,98.00
             27.71,94.98 25.77,90.31 26.83,87.02
             28.37,82.23 33.97,80.67 37.57,84.31
             41.11,87.90 42.55,101.60 45.14,105.90
             47.65,110.07 60.26,116.27 65.00,119.00
             65.00,119.00 58.10,92.00 58.10,92.00
             57.84,87.93 59.02,83.45 64.00,83.45
             68.48,83.45 70.29,87.34 71.36,91.00
             71.36,91.00 78.63,118.00 78.63,118.00
             79.28,120.51 80.52,125.67 81.93,127.67
             83.82,130.36 89.05,132.86 92.00,134.60
             92.00,134.60 117.00,149.01 117.00,149.01
             120.07,150.81 129.57,157.26 132.72,156.73
             134.35,156.46 137.39,153.91 139.01,152.93
             145.73,148.85 148.84,150.58 149.00,142.00
             149.00,142.00 149.00,97.00 149.00,97.00
             149.00,94.91 149.12,91.94 148.40,90.00
             147.23,86.82 143.41,83.41 141.00,81.00
             141.00,81.00 127.00,67.00 127.00,67.00
             123.57,63.56 117.27,58.47 118.47,53.02
             119.26,49.42 122.46,47.60 126.00,48.33
             129.47,49.06 132.56,52.58 135.00,55.00
             135.00,55.00 149.00,69.00 149.00,69.00
             149.00,64.43 149.67,50.39 147.98,47.00
             145.39,41.83 134.63,34.57 132.98,29.00
             131.40,23.65 136.01,20.23 141.00,21.45
             144.28,22.24 146.64,24.78 149.00,27.00 Z
           M 88.02,57.85
           C 91.98,56.77 95.49,56.57 98.86,59.43
             104.78,64.45 103.32,73.98 95.98,76.85
             84.23,81.45 75.61,64.88 88.02,57.85 Z
           M 217.04,58.74
           C 221.02,57.77 225.33,57.68 228.58,60.65
             233.62,65.25 232.11,74.56 225.96,77.39
             214.45,82.70 204.05,66.24 217.04,58.74 Z
           M 121.00,74.44
           C 125.65,73.96 131.71,74.95 131.71,81.00
             131.71,89.94 118.59,85.30 117.13,94.00
             116.60,97.11 120.04,102.32 121.58,105.00
             121.58,105.00 135.36,129.00 135.36,129.00
             137.62,133.41 138.80,140.59 131.98,141.58
             126.85,142.32 123.84,136.68 121.72,133.00
             121.72,133.00 110.72,114.00 110.72,114.00
             109.13,111.20 106.08,105.34 103.79,103.43
             95.33,96.37 90.68,116.20 82.43,107.69
             78.17,103.28 81.76,96.88 85.33,93.33
             91.90,86.79 99.35,88.99 102.79,86.98
             105.48,85.41 106.36,82.28 109.33,79.53
             112.89,76.21 116.41,75.32 121.00,74.44 Z
           M 185.11,75.74
           C 191.69,74.07 198.81,75.38 203.82,80.21
             207.02,83.29 208.18,87.10 211.21,88.40
             211.21,88.40 220.00,89.64 220.00,89.64
             225.94,91.35 234.51,99.08 232.07,105.94
             230.65,109.93 225.66,110.96 222.21,108.98
             219.09,107.19 216.11,99.67 210.09,103.61
             207.19,105.51 204.87,110.02 203.15,113.00
             203.15,113.00 192.72,131.00 192.72,131.00
             190.95,134.11 188.23,140.06 184.90,141.40
             178.13,144.11 173.82,138.28 176.36,132.00
             176.36,132.00 190.58,107.00 190.58,107.00
             192.26,104.10 196.06,98.25 195.90,95.00
             195.50,86.90 185.78,89.26 182.60,85.57
             179.48,81.95 181.68,77.91 185.11,75.74 Z
           M 53.04,150.61
           C 54.61,150.45 55.14,150.06 56.90,150.61
             65.71,152.54 58.73,163.29 59.84,166.96
             61.46,172.29 67.56,171.99 72.00,172.00
             72.00,172.00 99.00,172.00 99.00,172.00
             103.80,172.02 111.55,172.33 111.55,179.00
             111.55,185.22 104.64,185.94 100.00,186.00
             100.00,186.00 72.00,186.00 72.00,186.00
             67.56,186.01 61.46,185.71 59.84,191.04
             58.55,195.31 65.16,202.88 58.72,206.82
             57.35,207.67 55.58,207.87 54.01,207.53
             48.33,206.28 46.26,199.05 46.04,194.00
             45.62,184.33 49.02,182.85 49.02,179.00
             49.02,176.77 47.16,173.67 46.53,171.00
             44.83,163.80 46.22,154.64 53.04,150.61 Z
           M 255.02,151.83
           C 265.42,150.72 267.30,164.31 265.47,172.00
             264.47,176.21 262.31,178.12 262.45,180.42
             262.61,183.16 265.64,184.89 265.96,192.00
             266.24,198.17 263.82,210.50 255.04,208.53
             246.49,206.60 252.40,196.48 252.30,194.00
             252.04,187.48 244.81,187.01 240.00,187.00
             240.00,187.00 213.00,187.00 213.00,187.00
             208.34,186.99 201.31,187.12 200.42,180.99
             199.52,174.71 205.50,174.03 210.00,174.00
             210.00,174.00 238.00,174.00 238.00,174.00
             243.10,173.99 251.51,173.73 252.36,166.98
             253.09,161.21 245.71,156.72 255.02,151.83 Z
           M 155.00,161.39
           C 146.04,162.83 138.55,168.31 138.04,178.00
             137.47,188.95 145.55,198.77 157.00,197.81
             179.27,195.96 180.21,161.69 155.00,161.39 Z
           M 25.00,168.57
           C 38.98,167.44 41.33,185.93 29.00,188.60
             16.95,191.22 10.22,173.11 25.00,168.57 Z
           M 282.00,170.65
           C 285.98,169.92 289.61,170.04 292.57,173.28
             296.26,177.30 296.66,187.70 288.00,190.35
             275.64,194.12 268.82,176.31 282.00,170.65 Z
           M 103.00,270.00
           C 94.15,272.07 84.60,268.49 80.46,260.00
             77.63,254.21 80.92,248.04 86.99,249.33
             91.58,250.31 93.00,255.18 97.01,256.34
             102.39,257.90 106.12,250.76 108.28,247.00
             108.28,247.00 121.58,224.00 121.58,224.00
             123.86,220.12 125.79,216.68 130.98,217.19
             137.55,217.83 136.88,224.59 134.67,229.00
             134.67,229.00 120.85,253.00 120.85,253.00
             119.37,255.57 115.68,261.21 115.82,264.00
             116.32,274.19 132.99,267.87 130.53,278.98
             129.44,283.91 125.15,284.08 121.00,283.98
             112.03,283.78 105.52,278.54 103.00,270.00 Z
           M 179.04,217.78
           C 185.14,216.93 186.75,220.19 189.58,225.00
             189.58,225.00 202.80,248.00 202.80,248.00
             205.03,251.71 208.57,258.70 213.96,257.16
             218.14,255.96 219.02,250.58 224.01,249.68
             225.72,249.37 227.33,249.71 228.72,250.75
             233.60,254.41 230.67,261.15 227.47,264.82
             220.61,272.68 212.76,269.93 209.21,272.02
             206.76,273.47 205.65,276.58 203.61,278.81
             201.06,281.62 197.63,283.28 194.00,284.24
             189.36,285.47 181.91,285.89 180.45,279.96
             177.62,268.44 197.11,274.92 194.66,263.00
             194.17,260.63 190.38,254.41 189.00,252.00
             189.00,252.00 178.01,233.00 178.01,233.00
             174.57,227.08 171.60,221.97 179.04,217.78 Z
           M 284.00,261.00
           C 284.00,261.00 283.00,261.00 283.00,261.00
             283.00,261.00 284.00,262.00 284.00,262.00
             284.00,262.00 284.00,261.00 284.00,261.00 Z
           M 86.04,281.74
           C 90.00,280.77 94.47,280.45 97.72,283.43
             103.23,288.48 101.39,299.97 92.00,300.89
             79.69,302.09 75.78,287.66 86.04,281.74 Z
           M 215.04,282.85
           C 219.06,281.74 223.41,281.44 226.77,284.43
             231.88,288.97 230.83,298.57 223.98,301.26
             211.84,306.04 203.06,290.00 215.04,282.85 Z"
  />
</svg>
