<svg
  xmlns="http://www.w3.org/2000/svg"
  width="256"
  height="256"
  viewBox="0 0 333 380"
>
  <path
    id="Selection #1"
    fill="#acd9e8"
    stroke="black"
    stroke-width="0"
    d="M 160.00,166.47
           C 169.57,165.13 179.01,166.02 185.61,174.04
             198.42,189.63 186.58,216.54 165.00,214.67
             156.98,213.98 149.39,210.07 145.22,203.00
             137.21,189.40 144.22,170.23 160.00,166.47 Z
           M 163.00,179.43
           C 151.07,184.24 153.64,199.78 165.00,200.89
             177.75,202.13 181.26,187.84 173.78,181.65
             170.51,178.95 166.96,178.87 163.00,179.43 Z
           M 160.00,48.00
           C 160.00,44.15 160.39,30.78 159.41,28.00
             157.70,23.19 150.07,17.88 153.89,8.00
             158.30,-3.40 177.68,-2.79 179.79,11.00
             181.39,21.53 174.66,23.02 173.16,28.09
             173.16,28.09 173.16,49.00 173.16,49.00
             175.10,47.14 177.14,45.08 180.00,44.47
             185.19,43.37 189.05,48.07 187.39,53.00
             185.73,57.92 176.46,64.12 174.02,69.00
             172.37,72.30 173.00,83.76 173.00,88.00
             173.00,88.00 183.00,78.00 183.00,78.00
             185.31,75.69 188.95,71.65 192.00,70.61
             197.46,68.76 201.78,73.75 200.07,79.00
             199.01,82.27 195.40,85.59 193.00,88.00
             193.00,88.00 177.00,104.00 177.00,104.00
             174.43,106.52 170.87,110.34 167.00,110.43
             163.09,110.52 159.58,106.54 157.00,104.00
             157.00,104.00 140.00,87.00 140.00,87.00
             137.52,84.50 133.12,80.57 132.54,77.00
             131.70,71.85 136.53,69.29 141.00,70.43
             144.84,71.41 148.25,75.27 151.00,78.00
             151.00,78.00 160.00,87.00 160.00,87.00
             160.00,82.76 160.63,71.30 158.98,68.00
             156.54,63.12 148.83,58.71 147.45,53.00
             145.90,46.65 151.30,41.53 160.00,48.00 Z
           M 102.28,80.02
           C 110.50,77.04 114.30,83.62 119.17,89.00
             119.17,89.00 126.00,96.00 126.00,96.00
             126.00,96.00 150.00,121.00 150.00,121.00
             153.32,124.32 159.36,129.50 160.57,134.00
             161.73,138.34 159.48,146.56 158.37,151.00
             157.34,155.15 156.36,162.76 152.86,165.26
             148.24,168.55 139.85,164.53 135.00,163.02
             131.14,161.82 123.40,160.20 120.70,157.35
             118.65,155.19 116.10,145.34 115.14,142.00
             115.14,142.00 104.86,106.00 104.86,106.00
             103.58,101.47 98.82,87.79 99.66,84.02
             100.18,81.69 100.73,81.51 102.28,80.02 Z
           M 223.00,80.02
           C 231.09,77.35 233.95,81.10 232.68,89.00
             232.68,89.00 218.14,140.00 218.14,140.00
             216.53,145.64 215.06,155.69 209.94,158.92
             207.42,160.51 193.72,164.38 190.00,165.42
             187.24,166.19 183.93,167.38 181.11,166.25
             177.90,164.97 177.18,162.01 176.38,159.00
             175.09,154.19 170.59,137.98 171.93,134.00
             173.36,129.76 181.36,122.80 184.72,119.00
             184.72,119.00 207.96,95.00 207.96,95.00
             212.95,89.78 216.89,84.09 223.00,80.02 Z
           M 40.00,124.00
           C 40.00,124.00 23.00,115.16 23.00,115.16
             18.43,113.93 9.63,118.01 3.28,110.89
             -6.04,100.46 4.60,84.46 18.00,88.65
             26.53,91.31 25.60,97.81 29.30,101.62
             31.42,103.81 44.59,111.17 48.00,113.00
             46.71,107.67 46.85,99.54 54.96,101.33
             61.89,102.86 61.34,115.64 64.30,120.90
             66.61,124.99 76.61,129.89 81.00,132.00
             81.00,132.00 77.63,119.00 77.63,119.00
             76.77,115.62 75.40,110.51 76.43,107.11
             77.84,102.44 83.66,102.28 86.49,104.74
             88.78,106.72 89.89,112.09 90.63,115.00
             90.63,115.00 97.12,139.00 97.12,139.00
             97.99,142.35 99.41,146.60 97.67,149.87
             95.69,153.60 90.72,154.14 87.00,155.15
             87.00,155.15 63.00,161.63 63.00,161.63
             60.12,162.35 54.81,164.08 52.04,163.17
             47.40,161.65 45.89,155.99 49.43,152.51
             51.68,150.29 56.93,149.15 60.00,148.37
             60.00,148.37 75.00,144.00 75.00,144.00
             75.00,144.00 57.00,135.11 57.00,135.11
             52.06,134.07 44.01,139.17 38.02,137.68
             32.58,136.33 29.73,129.24 40.00,124.00 Z
           M 286.00,113.00
           C 289.76,111.32 301.04,105.40 303.49,102.62
             306.81,98.86 305.66,92.39 314.00,89.01
             327.52,83.51 339.03,100.00 329.61,110.89
             323.10,118.41 315.41,114.33 311.72,115.24
             311.72,115.24 292.00,126.00 292.00,126.00
             294.64,126.57 297.59,127.06 299.40,129.30
             301.88,132.35 301.19,137.79 296.94,139.39
             292.15,141.19 282.35,136.22 277.00,136.14
             272.57,136.07 263.08,142.55 259.00,145.00
             262.97,146.16 279.60,150.24 281.77,151.85
             283.22,152.92 284.14,154.25 284.53,156.02
             285.65,161.09 281.77,164.05 277.00,163.66
             277.00,163.66 246.00,155.63 246.00,155.63
             242.33,154.67 237.07,153.73 235.34,149.89
             234.10,147.15 235.41,141.86 236.15,139.00
             236.15,139.00 242.63,115.00 242.63,115.00
             243.38,112.02 244.38,106.67 246.65,104.60
             249.36,102.12 256.29,102.29 257.48,108.02
             258.03,110.65 256.33,116.28 255.58,119.00
             255.58,119.00 252.00,133.00 252.00,133.00
             255.88,130.67 266.96,124.88 269.15,121.79
             272.79,116.66 271.74,104.91 279.02,103.33
             285.68,101.89 287.36,107.74 286.00,113.00 Z
           M 121.00,110.00
           C 120.12,114.81 126.23,132.23 127.86,138.00
             128.59,140.59 129.64,145.45 131.56,147.28
             133.29,148.92 141.28,151.10 144.00,152.00
             144.00,152.00 146.94,139.00 146.94,139.00
             146.94,139.00 139.00,129.00 139.00,129.00
             139.00,129.00 121.00,110.00 121.00,110.00 Z
           M 213.00,110.00
           C 213.00,110.00 212.00,110.00 212.00,110.00
             212.00,110.00 213.00,111.00 213.00,111.00
             213.00,111.00 213.00,110.00 213.00,110.00 Z
           M 212.00,111.00
           C 204.35,116.48 199.31,123.34 192.96,130.00
             189.30,133.84 185.39,136.21 186.06,142.00
             186.06,142.00 188.00,152.00 188.00,152.00
             188.00,152.00 201.28,147.28 201.28,147.28
             201.28,147.28 205.28,137.00 205.28,137.00
             205.28,137.00 212.00,111.00 212.00,111.00 Z
           M 109.00,167.46
           C 118.08,166.22 118.50,168.00 125.00,173.83
             125.00,173.83 132.00,180.04 132.00,180.04
             134.85,182.81 138.90,186.61 138.24,191.00
             137.51,195.97 129.68,202.05 126.00,205.28
             121.63,209.13 118.37,213.98 112.00,213.24
             112.00,213.24 54.00,199.13 54.00,199.13
             48.19,197.67 37.15,196.82 39.45,188.05
             40.87,182.61 51.20,181.57 56.00,180.37
             56.00,180.37 109.00,167.46 109.00,167.46 Z
           M 215.00,168.02
           C 222.27,165.59 230.80,169.07 238.00,170.87
             238.00,170.87 288.00,183.26 288.00,183.26
             294.84,185.91 295.70,192.43 289.94,195.86
             287.58,197.27 277.31,199.54 274.00,200.37
             274.00,200.37 238.00,209.13 238.00,209.13
             233.94,210.12 221.33,213.86 218.00,213.26
             213.02,212.37 201.64,200.98 198.11,197.00
             195.81,194.41 193.61,191.67 194.78,188.00
             196.38,182.99 210.28,171.12 215.00,168.02 Z
           M 75.00,191.00
           C 75.00,191.00 99.00,196.63 99.00,196.63
             101.18,197.17 108.22,199.10 110.00,199.02
             113.19,198.88 120.80,193.50 120.80,190.05
             120.80,186.68 113.15,181.12 110.00,180.98
             108.23,180.90 101.17,182.83 99.00,183.37
             99.00,183.37 75.00,189.00 75.00,189.00
             75.00,189.00 75.00,191.00 75.00,191.00 Z
           M 258.00,189.00
           C 258.00,189.00 223.00,181.31 223.00,181.31
             219.39,181.47 212.20,186.05 212.20,190.00
             212.20,193.90 219.34,198.96 223.00,199.04
             223.00,199.04 258.00,191.00 258.00,191.00
             258.00,191.00 258.00,189.00 258.00,189.00 Z
           M 147.00,213.56
           C 150.19,213.39 152.21,213.48 154.42,216.23
             155.99,218.18 156.53,221.56 157.13,224.00
             158.38,229.10 161.82,241.33 160.57,246.00
             159.31,250.71 152.49,256.44 149.01,260.00
             149.01,260.00 139.96,270.00 139.96,270.00
             139.96,270.00 121.09,289.00 121.09,289.00
             117.32,293.04 112.79,299.95 107.00,300.76
             102.41,301.40 99.18,298.71 99.43,294.00
             99.43,294.00 106.86,267.00 106.86,267.00
             106.86,267.00 115.58,237.00 115.58,237.00
             116.59,233.52 118.45,225.02 120.70,222.65
             123.61,219.58 142.06,214.72 147.00,213.56 Z
           M 182.04,213.61
           C 187.95,213.00 197.07,216.83 203.00,218.58
             206.44,219.59 210.04,220.28 212.44,223.22
             214.49,225.73 216.58,234.49 217.58,238.00
             217.58,238.00 226.58,269.00 226.58,269.00
             226.58,269.00 232.82,292.00 232.82,292.00
             233.22,295.59 233.13,299.62 228.94,300.68
             220.98,302.70 211.72,289.16 206.91,284.00
             206.91,284.00 181.91,258.00 181.91,258.00
             178.69,254.55 172.64,249.61 171.66,245.00
             171.00,241.92 173.44,233.55 174.21,230.00
             175.48,224.12 175.92,216.18 182.04,213.61 Z
           M 74.00,235.00
           C 74.00,235.00 61.00,231.42 61.00,231.42
             55.77,229.97 46.62,228.80 48.33,221.04
             49.72,214.77 56.53,216.20 61.00,217.42
             61.00,217.42 88.00,224.71 88.00,224.71
             94.31,226.51 98.52,227.20 97.82,235.00
             97.82,235.00 89.63,267.00 89.63,267.00
             88.59,270.98 87.75,276.21 82.96,277.24
             78.38,278.23 75.14,274.33 75.23,270.00
             75.23,270.00 81.00,247.00 81.00,247.00
             76.48,249.61 65.63,254.96 63.14,259.10
             60.03,264.27 61.17,275.11 53.98,276.67
             47.32,278.11 45.64,272.26 47.00,267.00
             43.72,268.46 30.55,275.41 28.60,277.63
             26.04,280.54 27.65,288.34 18.00,291.35
             4.59,295.54 -6.03,279.54 3.28,269.11
             10.02,261.54 16.72,266.11 22.00,264.47
             22.00,264.47 40.00,255.00 40.00,255.00
             38.38,254.12 35.57,252.74 34.31,251.51
             31.00,248.25 31.46,242.55 36.06,240.75
             41.04,238.81 51.45,244.06 56.00,243.92
             59.97,243.79 70.10,237.25 74.00,235.00 Z
           M 252.00,248.00
           C 252.00,248.00 255.37,262.00 255.37,262.00
             256.58,266.85 259.12,275.12 251.98,276.67
             247.44,277.65 245.25,274.83 243.90,271.00
             243.90,271.00 236.29,243.00 236.29,243.00
             235.22,239.24 233.12,233.80 235.18,230.13
             237.14,226.63 241.47,226.05 245.00,225.12
             245.00,225.12 270.00,218.37 270.00,218.37
             273.24,217.53 277.72,215.75 280.94,216.93
             285.82,218.71 285.68,224.92 283.40,227.49
             281.33,229.83 275.07,231.10 272.00,231.87
             272.00,231.87 258.00,236.00 258.00,236.00
             264.15,237.94 272.51,244.63 277.00,245.04
             277.00,245.04 291.00,242.18 291.00,242.18
             296.57,241.68 301.81,245.06 298.81,250.94
             297.33,253.84 294.76,254.76 292.00,256.00
             292.00,256.00 312.00,267.00 312.00,267.00
             320.78,260.54 333.38,268.30 332.86,279.00
             332.39,288.63 322.90,294.61 314.00,290.99
             306.18,287.82 306.91,281.94 303.57,278.39
             303.57,278.39 285.00,267.00 285.00,267.00
             285.95,272.31 286.42,280.49 278.02,278.67
             270.91,277.13 271.46,264.50 268.57,259.18
             266.37,255.12 256.29,250.27 252.00,248.00 Z
           M 144.00,228.00
           C 144.00,228.00 131.56,232.72 131.56,232.72
             131.56,232.72 127.29,244.00 127.29,244.00
             127.29,244.00 120.00,270.00 120.00,270.00
             120.00,270.00 139.00,251.00 139.00,251.00
             139.00,251.00 146.94,241.00 146.94,241.00
             146.94,241.00 144.00,228.00 144.00,228.00 Z
           M 212.00,269.00
           C 212.00,269.00 205.14,243.00 205.14,243.00
             205.14,243.00 201.28,232.81 201.28,232.81
             201.28,232.81 188.00,228.00 188.00,228.00
             188.00,228.00 186.04,241.00 186.04,241.00
             186.04,241.00 192.91,250.00 192.91,250.00
             192.91,250.00 212.00,269.00 212.00,269.00 Z
           M 252.00,247.00
           C 252.00,247.00 251.00,247.00 251.00,247.00
             251.00,247.00 252.00,248.00 252.00,248.00
             252.00,248.00 252.00,247.00 252.00,247.00 Z
           M 213.00,269.00
           C 213.00,269.00 212.00,269.00 212.00,269.00
             212.00,269.00 213.00,270.00 213.00,270.00
             213.00,270.00 213.00,269.00 213.00,269.00 Z
           M 160.00,292.00
           C 160.00,292.00 151.00,301.00 151.00,301.00
             147.60,304.40 142.45,310.74 137.04,309.53
             134.67,308.99 133.01,307.33 132.47,304.96
             131.47,300.49 135.21,296.89 138.02,294.00
             138.02,294.00 153.00,279.00 153.00,279.00
             155.23,276.77 159.33,272.35 162.00,271.02
             167.33,268.37 171.28,271.46 175.00,275.02
             175.00,275.02 194.00,294.00 194.00,294.00
             196.93,296.97 201.84,301.25 200.22,305.95
             198.68,310.40 193.80,311.29 190.00,309.13
             186.83,307.33 176.28,296.28 173.00,293.00
             173.00,297.35 172.36,309.67 174.02,313.00
             176.55,318.05 184.62,322.64 185.64,328.00
             187.30,336.70 178.03,335.52 172.80,333.00
             172.96,337.73 171.10,348.11 172.80,351.83
             174.16,355.72 179.24,357.46 179.89,365.00
             181.30,381.38 160.53,384.95 154.45,373.00
             149.31,362.88 157.55,356.63 158.84,352.00
             158.84,352.00 158.84,332.00 158.84,332.00
             154.90,335.23 147.06,338.95 145.33,330.98
             143.80,323.90 154.93,317.49 158.40,312.00
             160.92,308.02 160.00,297.02 160.00,292.00 Z"
  />
</svg>
