<svg
  xmlns="http://www.w3.org/2000/svg"
  width="256"
  height="256"
  viewBox="0 0 333 381"
>
  <path
    id="Selection"
    fill="#acd9e8"
    stroke="black"
    stroke-width="0"
    d="M 161.00,43.00
        C 161.00,43.00 161.00,12.00 161.00,12.00
          161.01,6.96 160.85,-0.07 168.00,0.25
          174.22,0.53 173.99,6.42 174.00,11.00
          174.00,11.00 174.00,42.00 174.00,42.00
          174.00,42.00 183.00,33.00 183.00,33.00
          186.33,29.72 191.63,24.02 196.85,27.03
          198.41,27.92 199.29,29.29 199.67,31.02
          200.81,36.31 195.32,40.68 192.00,44.00
          188.26,47.75 176.11,58.91 174.60,63.00
          173.88,64.94 174.00,67.91 174.00,70.00
          174.00,70.00 174.00,97.00 174.00,97.00
          174.00,97.00 211.00,60.06 211.00,60.06
          218.28,53.40 225.48,55.87 224.81,63.00
          224.33,68.12 215.68,75.32 212.00,79.00
          212.00,79.00 176.31,115.00 176.31,115.00
          173.87,118.25 174.03,120.15 174.00,124.00
          174.00,124.00 174.00,150.00 174.00,150.00
          174.00,152.28 173.79,155.76 175.02,157.73
          176.56,160.18 180.47,161.08 183.00,162.53
          186.53,164.55 189.13,167.19 192.00,170.00
          198.75,163.12 221.81,153.63 226.49,147.82
          229.01,144.68 230.76,135.32 232.00,131.00
          232.00,131.00 242.71,91.00 242.71,91.00
          244.29,85.42 245.59,72.58 253.96,74.47
          261.29,76.13 258.39,85.14 257.00,90.00
          257.00,90.00 244.00,139.00 244.00,139.00
          249.50,135.70 270.58,124.32 273.49,120.79
          277.32,116.14 280.88,91.53 284.41,86.23
          287.52,81.56 294.29,82.42 295.68,88.02
          296.90,92.90 292.15,106.29 291.00,112.00
          291.00,112.00 323.00,93.70 323.00,93.70
          329.27,91.70 335.51,96.40 331.82,102.79
          330.32,105.40 325.62,107.84 323.00,109.40
          316.58,113.21 304.57,118.81 300.00,124.00
          304.02,124.34 317.88,127.42 320.72,129.72
          324.33,132.65 324.61,138.45 319.89,140.40
          316.48,141.81 311.39,140.35 308.00,139.42
          308.00,139.42 284.00,133.51 284.00,133.51
          280.34,133.56 276.17,136.48 273.00,138.28
          273.00,138.28 251.00,151.00 251.00,151.00
          251.00,151.00 296.00,162.37 296.00,162.37
          300.74,163.59 308.44,164.33 309.67,170.02
          310.66,174.61 307.45,177.70 303.00,177.72
          303.00,177.72 278.00,171.58 278.00,171.58
          278.00,171.58 249.00,163.85 249.00,163.85
          245.46,162.89 238.41,160.41 235.00,160.94
          231.87,161.44 218.74,169.60 215.00,171.72
          211.61,173.65 200.62,179.22 199.02,182.21
          198.04,184.33 198.93,187.59 199.02,190.00
          198.91,193.68 197.70,198.30 197.00,202.00
          202.84,203.70 216.00,211.94 222.00,215.42
          224.70,216.99 230.21,220.67 233.00,221.17
          236.33,221.77 247.17,218.19 251.00,217.15
          251.00,217.15 290.00,206.92 290.00,206.92
          295.17,205.24 307.42,200.35 310.26,206.92
          313.58,215.08 303.29,217.25 298.00,218.63
          298.00,218.63 249.00,232.00 249.00,232.00
          249.00,232.00 280.00,248.18 280.00,248.18
          282.97,248.76 288.03,247.13 291.00,246.29
          291.00,246.29 314.00,240.34 314.00,240.34
          318.79,239.95 322.79,242.79 321.67,247.98
          321.27,249.83 320.38,251.05 318.85,252.15
          315.88,254.28 301.05,257.66 297.00,258.00
          303.55,263.33 314.39,268.65 322.00,273.20
          325.11,275.06 330.12,277.50 331.39,281.04
          333.65,287.38 327.56,291.02 322.00,289.01
          322.00,289.01 291.00,271.00 291.00,271.00
          292.48,276.12 296.57,289.26 295.85,293.96
          294.93,299.99 287.56,299.99 284.72,296.69
          283.07,294.76 282.26,290.50 281.63,288.00
          280.33,282.88 276.21,265.45 273.49,262.21
          271.50,259.84 266.79,257.46 264.00,255.80
          264.00,255.80 244.00,244.00 244.00,244.00
          244.00,244.00 253.88,282.00 253.88,282.00
          253.88,282.00 257.54,296.00 257.54,296.00
          259.44,307.16 250.12,307.32 246.70,303.57
          244.33,300.97 242.63,291.78 241.58,288.00
          241.58,288.00 232.13,253.00 232.13,253.00
          231.15,249.12 228.58,237.91 226.44,235.21
          223.70,231.74 205.96,222.26 201.00,219.42
          198.79,218.15 193.28,214.68 191.00,214.55
          188.26,214.40 185.34,216.81 183.00,218.12
          174.41,222.94 172.07,219.93 172.00,230.00
          172.00,230.00 172.00,255.00 172.00,255.00
          172.02,265.97 176.45,267.45 184.00,275.00
          184.00,275.00 212.00,303.00 212.00,303.00
          215.33,306.33 223.77,313.67 224.67,318.00
          225.88,323.85 219.97,329.87 211.00,321.89
          211.00,321.89 197.00,308.00 197.00,308.00
          197.00,308.00 172.00,283.00 172.00,283.00
          172.00,283.00 172.00,309.00 172.00,309.00
          172.00,311.09 171.88,314.06 172.60,316.00
          174.83,322.05 194.66,337.59 197.82,344.00
          200.40,349.23 197.13,354.94 191.00,353.67
          187.31,352.90 183.61,348.61 181.00,346.00
          181.00,346.00 172.00,337.00 172.00,337.00
          172.00,337.00 172.00,372.00 172.00,372.00
          171.93,375.48 171.78,378.97 167.94,380.39
          161.00,382.95 159.07,376.19 159.00,371.00
          159.00,371.00 159.00,339.00 159.00,339.00
          159.00,339.00 150.00,348.00 150.00,348.00
          147.58,350.38 144.43,353.80 141.00,354.53
          135.21,355.76 131.56,350.06 134.03,345.00
          136.84,339.22 156.21,323.95 158.40,318.00
          159.12,316.06 159.00,313.09 159.00,311.00
          159.00,311.00 159.00,284.00 159.00,284.00
          159.00,284.00 121.00,321.85 121.00,321.85
          113.43,328.25 107.25,322.79 108.47,317.00
          109.39,312.68 116.77,306.23 120.00,303.00
          120.00,303.00 148.00,275.00 148.00,275.00
          154.49,268.51 158.94,266.52 159.00,257.00
          159.00,257.00 159.00,221.00 159.00,221.00
          152.32,219.95 146.22,217.24 143.00,211.00
          143.00,211.00 118.00,225.40 118.00,225.40
          114.58,227.42 109.01,230.08 106.72,233.18
          104.68,235.95 102.79,244.36 101.87,248.00
          101.87,248.00 94.87,274.00 94.87,274.00
          94.87,274.00 88.14,299.00 88.14,299.00
          87.02,302.69 85.54,306.32 81.00,306.43
          71.69,306.65 75.08,296.04 76.37,291.00
          76.37,291.00 89.00,242.00 89.00,242.00
          89.00,242.00 69.00,253.60 69.00,253.60
          66.24,255.24 61.60,257.72 59.72,260.21
          57.61,263.01 52.86,282.27 51.63,287.00
          50.59,291.00 49.73,296.45 44.96,297.53
          40.45,298.55 37.36,295.33 37.20,291.00
          37.20,291.00 42.00,269.00 42.00,269.00
          42.00,269.00 12.00,286.47 12.00,286.47
          7.76,288.45 1.75,288.61 0.47,282.96
          -0.74,277.60 4.20,275.09 8.00,272.80
          15.81,268.09 27.34,262.42 34.00,257.00
          29.85,256.63 16.26,253.45 13.15,251.16
          8.83,248.00 9.42,241.70 14.11,239.93
          17.20,238.76 21.87,240.34 25.00,241.13
          25.00,241.13 49.00,247.33 49.00,247.33
          52.80,247.42 56.76,244.56 60.00,242.72
          60.00,242.72 82.00,230.00 82.00,230.00
          82.00,230.00 57.00,223.63 57.00,223.63
          57.00,223.63 37.00,218.37 37.00,218.37
          34.58,217.75 28.21,216.16 26.39,214.86
          22.13,211.83 22.03,204.36 29.02,203.24
          32.75,202.64 42.93,205.84 47.00,207.00
          47.00,207.00 82.00,216.37 82.00,216.37
          85.32,217.22 95.29,220.22 98.00,219.89
          101.42,219.48 113.22,212.01 117.00,209.85
          120.24,208.00 133.32,201.11 134.80,198.47
          135.26,197.05 135.01,193.66 134.80,192.00
          134.99,189.59 135.58,181.83 134.80,180.21
          133.58,177.61 128.50,175.14 126.00,173.72
          126.00,173.72 108.00,163.28 108.00,163.28
          105.30,161.75 102.15,159.60 99.00,159.52
          96.56,159.46 88.93,161.88 86.00,162.63
          86.00,162.63 55.00,170.88 55.00,170.88
          55.00,170.88 31.00,176.90 31.00,176.90
          27.25,177.14 23.28,176.35 22.54,171.98
          21.34,164.93 30.21,163.65 35.00,162.29
          35.00,162.29 83.00,150.00 83.00,150.00
          78.52,145.43 67.94,140.33 62.00,136.80
          58.64,134.80 55.10,132.16 51.00,132.43
          51.00,132.43 27.00,138.63 27.00,138.63
          23.84,139.44 19.13,141.31 16.02,140.22
          10.74,138.38 9.72,132.19 14.23,128.85
          16.62,127.08 31.80,123.37 36.00,122.00
          36.00,122.00 10.00,106.72 10.00,106.72
          6.54,104.74 1.62,102.55 1.41,97.99
          1.13,91.72 7.10,90.12 12.00,92.07
          12.00,92.07 42.00,109.00 42.00,109.00
          41.03,104.19 36.56,90.77 37.35,87.02
          38.56,81.32 45.39,79.66 48.91,84.39
          52.05,88.60 56.04,114.27 59.70,118.61
          61.52,120.77 67.34,123.76 70.00,125.28
          70.00,125.28 89.00,136.00 89.00,136.00
          89.00,136.00 76.87,89.00 76.87,89.00
          75.58,83.81 73.48,73.28 82.98,75.33
          89.09,76.65 90.31,86.85 91.63,92.00
          91.63,92.00 105.48,142.96 105.48,142.96
          107.27,147.57 110.94,148.96 115.00,151.28
          115.00,151.28 134.00,162.28 134.00,162.28
          136.17,163.51 141.02,166.89 143.42,166.51
          146.40,166.05 150.72,160.61 161.00,159.00
          161.00,159.00 161.00,126.00 161.00,126.00
          160.98,115.03 156.55,113.55 149.00,106.00
          149.00,106.00 122.00,79.00 122.00,79.00
          117.87,74.87 107.09,66.28 108.47,60.02
          109.26,56.42 112.46,54.60 116.00,55.33
          120.23,56.21 126.80,63.80 130.00,67.00
          130.00,67.00 161.00,98.00 161.00,98.00
          161.00,98.00 161.00,71.00 161.00,71.00
          161.00,68.91 161.12,65.94 160.40,64.00
          158.13,57.83 138.11,42.33 135.35,36.00
          133.24,31.16 136.23,26.44 142.00,27.24
          146.14,27.82 149.17,31.22 152.00,34.00
          152.00,34.00 161.00,43.00 161.00,43.00 Z
        M 118.02,97.71
        C 123.88,98.43 127.95,103.00 132.00,107.00
          140.50,115.41 145.98,117.67 146.00,130.00
          146.01,136.21 148.35,149.02 139.00,148.84
          135.66,148.77 132.77,146.84 130.00,145.20
          127.33,143.61 122.56,141.03 120.72,138.67
          118.15,135.37 115.81,121.79 114.63,117.00
          112.96,110.26 108.36,99.80 118.02,97.71 Z
        M 214.00,100.02
        C 227.47,95.71 223.11,110.07 221.37,117.00
          220.30,121.29 217.23,134.82 215.15,137.82
          213.09,140.79 203.51,146.34 200.00,148.10
          198.72,148.74 197.43,149.33 196.00,149.57
          186.01,151.20 187.99,138.06 188.00,132.00
          188.01,129.35 187.81,126.43 189.02,124.00
          190.36,121.32 194.76,117.24 197.00,115.00
          202.32,109.68 207.64,104.11 214.00,100.02 Z
        M 90.00,136.00
        C 90.00,136.00 89.00,136.00 89.00,136.00
          89.00,136.00 90.00,137.00 90.00,137.00
          90.00,137.00 90.00,136.00 90.00,136.00 Z
        M 166.00,171.47
        C 158.69,172.45 152.57,176.02 149.53,183.00
          143.97,195.78 154.18,209.87 168.00,208.90
          177.96,208.21 187.18,198.10 185.44,188.00
          183.74,178.06 175.75,171.98 166.00,171.47 Z
        M 92.00,175.46
        C 100.69,174.29 103.71,177.02 111.00,181.28
          114.34,183.24 118.32,185.59 118.32,190.00
          118.32,195.89 105.14,202.76 100.00,203.73
          94.48,204.77 72.87,198.13 67.02,195.75
          63.40,194.28 60.34,191.26 61.78,187.04
          63.05,183.31 66.63,182.31 70.00,181.29
          70.00,181.29 92.00,175.46 92.00,175.46 Z
        M 234.00,176.59
        C 239.64,176.06 247.45,179.27 253.00,180.98
          253.00,180.98 266.96,185.13 266.96,185.13
          270.51,186.71 272.83,189.98 271.39,193.95
          270.20,197.20 267.01,198.32 264.00,199.28
          264.00,199.28 240.00,205.70 240.00,205.70
          233.05,206.61 213.35,197.62 215.45,189.04
          216.66,184.07 229.30,178.11 234.00,176.59 Z
        M 136.00,231.65
        C 148.04,229.59 145.01,241.39 145.00,249.00
          144.98,258.09 144.68,258.03 138.00,264.17
          138.00,264.17 130.00,272.00 130.00,272.00
          127.17,274.82 121.84,280.39 118.00,281.40
          116.32,281.84 114.66,281.67 113.13,280.82
          107.23,277.53 110.78,268.08 112.15,263.00
          113.17,259.23 116.52,245.57 118.09,243.18
          120.49,239.51 131.72,233.33 136.00,231.65 Z
        M 193.02,231.76
        C 198.74,231.85 210.97,238.95 213.70,244.04
          213.70,244.04 218.87,264.00 218.87,264.00
          220.10,268.90 224.21,282.00 215.96,282.81
          210.29,283.37 205.62,277.62 202.00,274.00
          198.47,270.48 189.33,262.16 187.74,258.00
          186.65,255.15 186.98,246.47 187.00,243.00
          187.03,237.21 186.87,233.86 193.02,231.76 Z"
  />
</svg>
