<svg
  xmlns="http://www.w3.org/2000/svg"
  width="256"
  height="256"
  viewBox="0 0 334 341"
>
  <path
    id="Selection"
    fill="#acd9e8"
    stroke="black"
    stroke-width="0"
    d="M 164.27,1.03
           C 173.20,-1.97 175.69,11.72 178.20,18.00
             179.91,22.28 184.75,32.98 184.81,37.00
             184.86,41.56 178.79,55.04 176.80,60.00
             175.46,63.34 172.70,72.12 169.73,73.81
             166.56,75.61 163.81,73.61 162.07,70.94
             162.07,70.94 155.00,54.00 155.00,54.00
             153.56,50.41 149.67,41.39 149.43,38.00
             149.17,34.54 151.31,30.23 152.60,27.00
             155.14,20.64 159.84,5.14 164.27,1.03 Z
           M 227.00,49.00
           C 228.36,44.69 238.44,26.29 241.39,23.23
             245.75,18.70 251.44,20.04 252.68,25.04
             253.77,29.43 251.10,33.41 249.01,37.00
             249.01,37.00 239.00,55.00 239.00,55.00
             242.83,54.46 249.43,52.42 252.89,53.43
             258.02,54.94 258.09,62.12 253.85,64.86
             253.85,64.86 230.21,72.30 230.21,72.30
             225.11,75.35 224.09,84.16 217.96,85.53
             214.10,86.39 210.67,83.94 210.33,79.98
             209.84,74.32 215.91,69.33 216.15,64.00
             216.34,59.52 210.43,45.55 211.16,40.00
             212.00,33.60 218.52,33.00 221.57,35.60
             223.94,37.61 225.75,45.65 227.00,49.00 Z
           M 95.00,56.00
           C 95.00,56.00 80.60,29.00 80.60,29.00
             79.40,22.88 85.44,19.02 90.67,22.17
             93.27,23.74 95.47,28.34 97.00,31.00
             100.51,37.10 103.72,43.40 108.00,49.00
             108.35,44.87 109.31,38.41 112.42,35.43
             116.29,31.71 123.64,32.85 122.82,42.00
             122.82,42.00 117.71,65.00 117.71,65.00
             118.07,68.51 121.24,72.04 122.36,76.00
             123.16,78.82 123.31,82.97 120.57,84.82
             117.44,86.95 113.71,85.32 111.38,82.85
             108.22,79.52 106.99,74.60 102.90,72.14
             102.90,72.14 83.02,66.24 83.02,66.24
             79.33,64.86 76.49,62.38 77.47,58.04
             79.28,50.07 90.12,53.93 95.00,56.00 Z
           M 239.00,55.00
           C 239.00,55.00 238.00,55.00 238.00,55.00
             238.00,55.00 239.00,56.00 239.00,56.00
             239.00,56.00 239.00,55.00 239.00,55.00 Z
           M 142.00,81.53
           C 146.86,80.73 152.31,80.56 157.00,82.25
             159.84,83.27 164.83,86.54 167.00,86.58
             169.42,86.63 173.43,83.79 176.00,82.76
             183.45,79.77 201.59,80.31 203.67,90.02
             204.52,93.99 202.13,97.51 198.00,97.75
             191.90,98.10 187.72,91.10 180.09,96.15
             171.90,101.56 174.01,112.52 174.00,121.00
             173.99,124.33 174.24,128.94 172.15,131.72
             169.24,135.58 163.66,135.05 161.31,130.87
             159.82,128.20 160.00,124.00 160.00,121.00
             159.99,111.89 162.38,99.49 152.00,95.09
             144.59,91.95 132.72,104.02 130.33,92.98
             128.84,86.10 136.84,83.05 142.00,81.53 Z
           M 305.00,81.42
           C 311.14,80.68 319.09,81.39 314.57,90.00
             314.57,90.00 294.39,115.70 294.39,115.70
             290.96,118.92 287.38,118.77 283.00,119.42
             283.00,119.42 257.00,122.94 257.00,122.94
             250.86,122.95 248.68,119.48 251.65,114.00
             251.65,114.00 271.17,89.14 271.17,89.14
             272.75,87.63 273.95,86.79 276.00,86.03
             276.00,86.03 305.00,81.42 305.00,81.42 Z
           M 23.15,84.75
           C 28.60,83.59 45.47,86.96 52.00,87.87
             55.35,88.34 60.11,88.66 62.91,90.59
             65.42,92.33 70.62,99.27 72.80,102.00
             75.16,104.95 83.58,115.31 84.84,118.00
             86.21,120.93 86.38,124.81 82.85,126.22
             80.28,127.25 71.17,125.44 68.00,125.00
             63.40,124.37 46.09,122.29 43.17,120.26
             40.87,118.66 34.21,109.77 32.00,107.00
             27.98,101.97 15.13,90.26 23.15,84.75 Z
           M 100.00,128.00
           C 100.00,117.68 98.82,109.08 107.09,101.18
             110.97,97.48 121.47,92.22 124.22,100.06
             126.01,105.17 121.15,107.64 118.04,110.37
             113.80,114.10 111.66,118.55 114.31,124.00
             118.21,131.99 130.29,135.19 136.94,140.61
             140.32,143.36 142.53,147.96 138.57,151.40
             135.23,154.30 130.33,152.34 127.00,150.56
             121.05,147.38 109.68,138.49 103.00,141.02
             92.63,144.95 94.71,154.55 93.26,157.81
             91.70,161.32 87.54,162.58 84.23,160.68
             80.60,158.60 80.87,153.64 81.04,150.00
             81.56,138.94 88.94,129.81 100.00,128.00 Z
           M 234.00,128.00
           C 245.06,129.81 252.44,138.94 252.96,150.00
             253.13,153.64 253.40,158.60 249.77,160.68
             246.46,162.58 242.30,161.32 240.74,157.81
             239.29,154.55 241.37,144.95 231.00,141.02
             224.32,138.49 212.95,147.38 207.00,150.56
             203.67,152.34 198.77,154.30 195.43,151.40
             190.94,147.50 194.30,142.60 198.02,139.90
             205.32,134.62 222.45,129.24 220.76,118.00
             219.47,109.42 208.57,108.44 209.62,101.10
             210.50,94.81 219.36,93.98 226.91,101.10
             235.18,109.08 234.00,117.68 234.00,128.00 Z
           M 36.00,159.11
           C 32.32,155.31 24.14,149.06 27.33,143.15
             28.17,141.58 29.33,140.74 31.05,140.33
             38.70,138.52 47.62,151.30 53.00,155.85
             60.73,162.39 70.39,155.44 73.38,164.04
             77.06,174.63 60.54,170.75 56.00,173.02
             50.66,175.69 41.41,188.48 36.00,190.40
             30.60,192.31 26.05,188.74 27.45,183.00
             28.42,178.98 33.12,174.89 36.00,172.00
             36.00,172.00 9.00,172.00 9.00,172.00
             5.56,171.93 2.12,171.78 0.78,167.94
             -0.78,163.49 2.88,159.98 7.00,159.11
             7.00,159.11 36.00,159.11 36.00,159.11 Z
           M 298.00,172.00
           C 301.76,175.76 310.59,182.79 306.25,188.77
             305.25,190.16 303.68,191.18 301.98,191.46
             296.08,192.45 286.27,179.96 282.00,176.06
             280.04,174.27 278.64,172.97 276.00,172.31
             272.06,171.33 258.19,174.15 260.47,164.04
             262.25,156.18 272.66,160.65 278.00,157.98
             283.26,155.35 292.28,142.82 298.00,140.74
             303.11,138.89 307.80,142.53 306.67,148.00
             305.87,151.86 300.77,156.22 298.00,159.00
             298.00,159.00 322.00,159.00 322.00,159.00
             326.33,159.01 332.34,158.53 333.52,164.04
             334.90,170.55 328.87,171.93 324.00,172.00
             324.00,172.00 298.00,172.00 298.00,172.00 Z
           M 162.00,144.52
           C 170.43,143.18 177.74,144.36 183.66,151.09
             194.53,163.45 188.08,183.50 172.00,186.98
             147.64,192.26 137.36,162.80 152.10,149.22
             155.14,146.43 158.15,145.55 162.00,144.52 Z
           M 165.02,157.45
           C 153.13,162.29 159.54,175.90 169.00,173.68
             178.73,171.40 177.75,156.20 165.02,157.45 Z
           M 84.15,171.02
           C 94.94,167.33 93.25,177.57 94.65,182.00
             95.91,185.97 98.99,189.14 103.00,190.35
             111.11,192.79 122.55,182.30 130.00,179.21
             136.76,176.41 141.74,180.50 140.53,185.96
             139.71,189.65 135.98,191.61 133.00,193.40
             126.53,197.28 115.94,201.39 113.65,209.00
             110.99,217.87 120.81,222.11 123.14,225.37
             125.49,228.66 124.48,233.05 120.89,234.96
             115.34,237.93 107.53,231.01 104.39,227.00
             101.62,223.45 100.42,219.44 100.09,215.00
             99.88,212.21 100.41,207.59 98.98,205.27
             97.31,202.57 93.55,202.05 89.09,198.32
             82.69,192.95 76.84,177.49 84.15,171.02 Z
           M 243.23,171.02
           C 255.43,166.73 253.86,182.06 251.29,189.00
             249.53,193.75 247.22,197.03 242.99,199.89
             240.60,201.51 236.45,202.96 235.02,205.27
             233.51,207.71 234.19,213.71 233.70,217.00
             232.61,224.39 227.07,232.14 220.00,234.85
             215.59,236.55 210.37,235.40 209.62,230.00
             208.50,221.98 224.76,219.87 219.99,208.00
             217.23,201.13 207.19,197.12 201.00,193.40
             198.02,191.61 194.29,189.65 193.47,185.96
             192.27,180.55 197.08,177.33 202.00,178.51
             210.82,180.63 222.44,193.86 232.00,189.99
             242.86,185.59 237.01,176.74 243.23,171.02 Z
           M 164.21,197.74
           C 173.08,195.65 173.96,201.97 174.00,209.00
             174.04,216.20 172.33,227.28 177.34,232.89
             180.55,236.48 184.35,237.86 189.00,236.44
             192.82,235.28 196.67,232.04 200.77,234.33
             204.75,236.55 204.59,242.25 201.57,245.21
             197.97,248.74 188.97,251.10 184.00,250.67
             175.05,249.90 171.22,245.51 168.00,244.95
             164.76,244.38 161.11,247.53 158.00,248.79
             150.91,251.66 142.79,251.12 136.02,247.62
             131.82,245.46 128.15,241.11 131.18,236.28
             135.06,230.05 142.12,236.26 147.00,236.91
             152.54,237.66 158.14,233.24 159.79,228.00
             160.08,226.14 160.00,222.99 159.79,221.00
             160.01,214.08 157.90,202.03 164.21,197.74 Z
           M 254.31,215.02
           C 260.53,212.66 276.79,216.23 284.00,217.27
             287.23,217.74 292.17,218.08 294.83,219.85
             297.26,221.47 301.55,227.43 303.60,230.00
             306.38,233.48 315.71,244.69 317.06,248.00
             319.52,253.99 315.39,256.24 310.00,255.83
             310.00,255.83 287.00,252.42 287.00,252.42
             283.20,251.83 278.28,251.67 275.09,249.42
             272.35,247.49 264.60,237.25 262.00,234.00
             258.22,229.27 248.87,220.96 254.31,215.02 Z
           M 78.00,217.43
           C 85.27,216.56 90.97,218.82 86.12,227.00
             86.12,227.00 67.34,250.87 67.34,250.87
             63.60,254.94 61.08,254.67 56.00,255.42
             56.00,255.42 28.00,259.35 28.00,259.35
             22.28,259.09 21.16,254.48 23.70,250.00
             23.70,250.00 43.29,225.14 43.29,225.14
             47.18,221.34 50.95,221.46 56.00,220.73
             56.00,220.73 78.00,217.43 78.00,217.43 Z
           M 226.00,283.00
           C 225.25,288.33 224.26,298.07 217.00,297.75
             215.26,297.67 213.74,297.03 212.60,295.69
             208.50,290.83 214.88,275.98 216.08,270.00
             217.82,261.37 206.84,254.02 212.60,247.43
             219.85,239.14 226.03,255.37 230.10,258.44
             235.03,262.15 249.37,263.18 253.85,266.70
             257.97,269.93 257.63,275.54 252.94,277.40
             249.29,278.85 242.82,276.77 239.00,276.00
             239.00,276.00 253.03,301.00 253.03,301.00
             254.39,304.97 253.65,309.47 248.96,310.53
             243.95,311.65 241.34,307.68 239.15,304.00
             235.76,298.26 230.34,287.34 226.00,283.00 Z
           M 96.00,276.00
           C 92.30,276.74 84.29,279.41 81.06,278.22
             76.44,276.52 75.77,269.87 79.31,267.00
             79.31,267.00 103.90,259.07 103.90,259.07
             108.97,255.85 109.71,247.68 116.01,246.33
             119.96,245.49 123.54,247.88 123.75,252.00
             124.00,257.03 118.42,262.04 117.96,267.00
             117.96,267.00 122.82,289.00 122.82,289.00
             123.64,298.15 116.29,299.29 112.42,295.57
             109.85,293.10 108.54,286.62 107.00,283.00
             105.15,287.27 95.72,304.68 93.10,307.77
             90.67,310.64 86.48,312.05 83.31,309.40
             80.21,306.81 80.97,302.25 82.41,299.00
             82.41,299.00 96.00,276.00 96.00,276.00 Z
           M 169.11,266.08
           C 177.12,264.50 179.50,277.25 181.80,283.00
             183.54,287.34 188.79,299.01 188.79,303.00
             188.79,307.13 182.84,320.40 181.00,325.00
             179.46,328.85 176.68,338.06 172.89,339.72
             169.98,340.99 167.66,339.25 166.07,336.89
             166.07,336.89 159.20,320.00 159.20,320.00
             157.67,316.16 153.39,306.61 153.29,303.00
             153.19,299.66 155.34,295.15 156.60,292.00
             159.29,285.27 163.81,270.16 169.11,266.08 Z"
  />
</svg>
